<svg xmlns="http://www.w3.org/2000/svg" version="1.1" xmlns:xlink="http://www.w3.org/1999/xlink" width="512" height="512" x="0" y="0" viewBox="0 0 24 24" style="enable-background:new 0 0 512 512" xml:space="preserve"><g><path d="M23.335 13.122A3 3 0 0 0 20.991 12H19.5a1.5 1.5 0 1 0 0 3l1.501-.012c-.733 3.391-4.165 5.424-7.501 5.901V15h1a1.5 1.5 0 1 0 0-3h-1V8.724c1.742-.621 3-2.271 3-4.224C16.5 2.019 14.481 0 12 0S7.5 2.019 7.5 4.5c0 1.953 1.258 3.602 3 4.224V12h-1a1.5 1.5 0 1 0 0 3h1v5.889C7.165 20.412 3.734 18.381 3.009 15H4.5a1.5 1.5 0 1 0 0-3H3.009c-.914 0-1.769.409-2.344 1.123a2.967 2.967 0 0 0-.597 2.5c1.189 5.5 6.903 8.378 11.933 8.378s10.744-2.878 11.933-8.378a2.967 2.967 0 0 0-.598-2.5ZM12 3c.827 0 1.5.673 1.5 1.5S12.827 6 12 6s-1.5-.673-1.5-1.5S11.173 3 12 3Z" fill="#ffffff" opacity="1" data-original="#000000"></path></g></svg>