<svg xmlns="http://www.w3.org/2000/svg" version="1.1" xmlns:xlink="http://www.w3.org/1999/xlink" width="512" height="512" x="0" y="0" viewBox="0 0 24 24" style="enable-background:new 0 0 512 512" xml:space="preserve"><g><path d="m22.598 16.689-8.179-6.017c2.097-1.842 3.054-3.184 2.449-5.832a4.955 4.955 0 0 0-3.71-3.708 5.015 5.015 0 0 0-4.274.958A4.975 4.975 0 0 0 7 6.001a1.5 1.5 0 1 0 3 0c0-.612.275-1.183.754-1.565.486-.388 1.101-.525 1.737-.378a1.965 1.965 0 0 1 1.452 1.452c.293 1.283.232 1.48-2.87 4.066l-9.692 7.129A3.526 3.526 0 0 0 0 19.494 3.51 3.51 0 0 0 3.506 23h16.987a3.51 3.51 0 0 0 3.506-3.506c0-1.087-.517-2.13-1.402-2.804ZM20.494 20H3.506a.507.507 0 0 1-.327-.893L12 12.618l8.8 6.474a.507.507 0 0 1-.306.908Z" fill="#ffffff" opacity="1" data-original="#000000"></path></g></svg>