<svg xmlns="http://www.w3.org/2000/svg" version="1.1" xmlns:xlink="http://www.w3.org/1999/xlink" width="512" height="512" x="0" y="0" viewBox="0 0 16 16" style="enable-background:new 0 0 512 512" xml:space="preserve" class=""><g><clipPath id="a"><path d="M0 0h16v16H0z" fill="#3291d5" opacity="1" data-original="#000000"></path></clipPath><g clip-path="url(#a)"><path fill="#3291d5" fill-rule="evenodd" d="m12.508 11.508.188.823c.066.238.209.437.396.578a1.15 1.15 0 0 0 .984.193l1.089-.282c.6-.156.957-.754.796-1.336l-2.177-7.867C13.52 2.663 12.627 2 11.607 2h-.6v.002h-.004L11 2l-.002.002a1.14 1.14 0 0 0-.498.17c-1.35.811-4.255.414-5-.006a1.202 1.202 0 0 0-.509-.164V2h-.598c-1.02 0-1.913.663-2.177 1.617L.04 11.484c-.161.582.195 1.18.797 1.336l1.088.282a1.16 1.16 0 0 0 .984-.193c.187-.14.33-.34.396-.578l.184-.663.004.002v1.24c0 .274.106.526.28.718.088.097.194.18.312.242.07.036 1.405.065 2.916.086V14h1v-.03c1.683.02 3.29.03 3.38.03.623 0 1.128-.488 1.128-1.09zm-.901-8.417h-.2L9.35 5.663l1.223-.524a.5.5 0 0 0 .193-.147l1.404-1.755a1.153 1.153 0 0 0-.563-.146zm1.146 1.018 2.12 7.657-1.089.282-1.135-4.102a3.89 3.89 0 0 1-.141-1.037c0-.301-.252-.545-.564-.545s-.563.244-.563.545v6H8V10.5a.5.5 0 1 0 1 0 .5.5 0 0 0-1 0v-2a.5.5 0 1 0 1 0 .5.5 0 0 0-1 0V7.35l.026-.031 2.94-1.26a1.5 1.5 0 0 0 .581-.442zM5.137 5.832l2.166.79L7 7v5.91H4.62v-6a.555.555 0 0 0-.564-.546.555.555 0 0 0-.564.545c0 .362-.049.722-.145 1.071l-.939 3.39h-.004l-.188.678-1.089-.282 2.178-7.867a1.07 1.07 0 0 1 .07-.185l1.027 1.54a1.5 1.5 0 0 0 .735.578zm-.069-2.741 1.705 2.273-1.294-.472a.5.5 0 0 1-.245-.192L4.175 3.111c.071-.013.144-.02.218-.02zm3.093 2.457 1.616-2.02c-.913.09-2.188.076-3.132 0z" clip-rule="evenodd" opacity="1" data-original="#000000"></path></g></g></svg>