<svg xmlns="http://www.w3.org/2000/svg" version="1.1" xmlns:xlink="http://www.w3.org/1999/xlink" width="512" height="512" x="0" y="0" viewBox="0 0 24 24" style="enable-background:new 0 0 512 512" xml:space="preserve"><g><path d="m11.269 9.645 6.481-6.481 3.086 3.086-6.481 6.481A4.332 4.332 0 0 1 11.291 14H10.5a.5.5 0 0 1-.5-.5v-.791c0-1.149.456-2.251 1.269-3.064ZM23.361.639a2.182 2.182 0 0 0-3.086 0L19.164 1.75l3.086 3.086 1.111-1.111a2.182 2.182 0 0 0 0-3.086Zm-1.539 15.366-.536-.314a9.942 9.942 0 0 0 .647-4.864 1.5 1.5 0 0 0-2.98.346c.031.271.049.548.049.827 0 3.859-3.141 7-7 7s-7-3.141-7-7 3.141-7 7-7c.278 0 .553.016.822.048a1.488 1.488 0 0 0 1.667-1.312 1.498 1.498 0 0 0-.989-1.59v-.647a1.5 1.5 0 0 0-3 0v.625a9.996 9.996 0 0 0-6.271 3.594l-.537-.314a1.5 1.5 0 1 0-1.514 2.59l.536.314c-.456 1.144-.715 2.387-.715 3.691s.258 2.548.715 3.691l-.536.314a1.5 1.5 0 1 0 1.514 2.59l.537-.314a9.996 9.996 0 0 0 6.271 3.594v.625a1.5 1.5 0 0 0 3 0v-.625a9.996 9.996 0 0 0 6.271-3.594l.537.314a1.5 1.5 0 1 0 1.514-2.59Z" fill="#ffffff" opacity="1" data-original="#000000"></path></g></svg>