<svg xmlns="http://www.w3.org/2000/svg" version="1.1" xmlns:xlink="http://www.w3.org/1999/xlink" width="512" height="512" x="0" y="0" viewBox="0 0 24 24" style="enable-background:new 0 0 512 512" xml:space="preserve"><g><path d="M11 15c0 2.099-.508 4.156-.53 4.242a1 1 0 0 1-1.941-.484c.003-.012.193-.786.331-1.825a1 1 0 0 1-.808-1.827c.332-.166.962-.534 1.241-.812a.999.999 0 0 1 1.707.707Zm9-15H10C7.962 0 6 1.564 6 4v1.5c0 2 1.179 1.27 1.63.884a1.592 1.592 0 0 1 2.074 0c.451.386 1.016.616 1.63.616s1.179-.23 1.63-.616a1.592 1.592 0 0 1 2.074 0c.451.386 1.016.616 1.63.616s1.179-.23 1.63-.616a1.592 1.592 0 0 1 2.074 0c.19.163.404.29.63.392v10.895c0 .635-.402 1.203-1 1.415a1.5 1.5 0 1 0 1 2.828 4.51 4.51 0 0 0 3-4.243V4c0-2.385-1.894-4-4-4Zm-2.002 10.926v.012a37.053 37.053 0 0 1-1.584 10.592 3.48 3.48 0 0 1-3.346 2.471H3.186c-.98 0-1.891-.44-2.498-1.209a3.185 3.185 0 0 1-.6-2.728c.138-.58.332-1.246.546-1.98.59-2.021 1.326-4.535 1.362-7.104.006-.425.192-.827.511-1.106l.143-.125a3.08 3.08 0 0 1 4.028-.002c.136.116.359.255.654.255s.518-.139.653-.255a3.079 3.079 0 0 1 4.026 0c.136.116.359.255.654.255s.518-.139.654-.255a3.079 3.079 0 0 1 4.026 0c.358.27.633.733.652 1.181Zm-3.024 1.331c-1.461 1.035-3.541.945-4.913-.233a.093.093 0 0 0-.123 0c-1.399 1.201-3.531 1.268-4.997.171-.197 2.52-.871 4.827-1.427 6.73-.198.68-.379 1.297-.508 1.834a.197.197 0 0 0 .036.173.172.172 0 0 0 .143.068h9.882a.495.495 0 0 0 .478-.351 34.118 34.118 0 0 0 1.428-8.393Z" fill="#ffffff" opacity="1" data-original="#000000"></path></g></svg>