<svg xmlns="http://www.w3.org/2000/svg" version="1.1" xmlns:xlink="http://www.w3.org/1999/xlink" width="512" height="512" x="0" y="0" viewBox="0 0 24 24" style="enable-background:new 0 0 512 512" xml:space="preserve"><g><path d="M12 24C5.383 24 0 18.617 0 12S5.383 0 12 0s12 5.383 12 12-5.383 12-12 12Zm0-21c-4.962 0-9 4.037-9 9s4.038 9 9 9 9-4.037 9-9-4.037-9-9-9Zm1 14.5v-4.634l2.714-1.567a1.5 1.5 0 1 0-1.5-2.598l-3.464 2A1.5 1.5 0 0 0 10 12v5.5a1.5 1.5 0 1 0 3 0Z" fill="#ffffff" opacity="1" data-original="#000000"></path></g></svg>