<svg xmlns="http://www.w3.org/2000/svg" version="1.1" xmlns:xlink="http://www.w3.org/1999/xlink" width="512" height="512" x="0" y="0" viewBox="0 0 24 24" style="enable-background:new 0 0 512 512" xml:space="preserve"><g><path d="M18.5 24h-13A5.507 5.507 0 0 1 0 18.5V9.886c0-1.83.906-3.534 2.424-4.559l6.5-4.386a5.473 5.473 0 0 1 6.153 0l6.499 4.386A5.493 5.493 0 0 1 24 9.886V18.5c0 3.032-2.468 5.5-5.5 5.5ZM12 2.997c-.486 0-.974.144-1.397.431L4.102 7.813A2.5 2.5 0 0 0 3 9.885v8.614c0 1.379 1.121 2.5 2.5 2.5h13c1.379 0 2.5-1.121 2.5-2.5V9.886c0-.832-.412-1.606-1.102-2.072l-6.5-4.386A2.496 2.496 0 0 0 12 2.997Z" fill="#ffffff" opacity="1" data-original="#000000"></path></g></svg>