<svg xmlns="http://www.w3.org/2000/svg" version="1.1" xmlns:xlink="http://www.w3.org/1999/xlink" width="512" height="512" x="0" y="0" viewBox="0 0 16 16" style="enable-background:new 0 0 512 512" xml:space="preserve" class=""><g><path fill="#3291d5" fill-rule="evenodd" d="M11.247 15.375a1 1 0 0 0 .927.625h1.627a1 1 0 0 0 .984-1.18l-2.552-14a1 1 0 0 0-.984-.82H4.751a1 1 0 0 0-.984.82l-2.552 14A1 1 0 0 0 2.199 16h1.627a1 1 0 0 0 .927-.625L8 7.346zM9 7.152 12.174 15h1.627l-1.75-9.597-.915-.229A1.5 1.5 0 0 1 10 3.72V3H9zM8 4.679 3.826 15H2.199l1.75-9.597.915-.229A1.5 1.5 0 0 0 6 3.72V3h2zM11.614 3l.241 1.323-.476-.119A.5.5 0 0 1 11 3.72V3zM4.145 4.323l.476-.119A.5.5 0 0 0 5 3.72V3h-.614zM11.249 1l.182 1H10V1zM9 1v1H7V1zM6 1H4.75L4.57 2H6z" clip-rule="evenodd" opacity="1" data-original="#000000" class=""></path></g></svg>