<svg xmlns="http://www.w3.org/2000/svg" version="1.1" xmlns:xlink="http://www.w3.org/1999/xlink" width="512" height="512" x="0" y="0" viewBox="0 0 24 24" style="enable-background:new 0 0 512 512" xml:space="preserve" class=""><g><path d="M12 24A12 12 0 1 1 16.058.71a2.931 2.931 0 0 1 .815 5.068c-5.106 3.917-5.089 8.54 0 12.444a2.931 2.931 0 0 1-.816 5.068A12.229 12.229 0 0 1 12 24Zm0-21a9 9 0 1 0 2.925 17.508c-6.511-5.065-6.49-11.968 0-17.016A9.322 9.322 0 0 0 12 3Zm4.863 9.145 1.55.442.442 1.55a1.191 1.191 0 0 0 2.29 0l.442-1.55 1.55-.442a1.191 1.191 0 0 0 0-2.29l-1.55-.442-.442-1.55a1.191 1.191 0 0 0-2.29 0l-.442 1.55-1.55.442a1.191 1.191 0 0 0 0 2.29ZM21 18.5a1.5 1.5 0 0 0 3 0 1.5 1.5 0 0 0-3 0Z" fill="#ffffff" opacity="1" data-original="#000000" class=""></path></g></svg>