<svg xmlns="http://www.w3.org/2000/svg" version="1.1" xmlns:xlink="http://www.w3.org/1999/xlink" width="512" height="512" x="0" y="0" viewBox="0 0 24 24" style="enable-background:new 0 0 512 512" xml:space="preserve"><g><path d="M12.208 8.328c-.916-.077-1.788.326-2.67 1.209-1.634 1.635-1.634 3.292 0 4.925.481.482 1.239 1.142 2.254 1.21.966.064 1.854-.392 2.67-1.21 1.634-1.634 1.633-3.292 0-4.925-.481-.482-1.239-1.132-2.254-1.21Zm.84 4.721c-.302.302-.767.655-1.102.629-.262-.02-.596-.232-.993-.629-.787-.787-.897-1.2 0-2.098.291-.291.706-.63 1.061-.63l.041.001c.262.02.596.232.993.629.787.787.897 1.2 0 2.098Z" fill="#ffffff" opacity="1" data-original="#000000"></path><path d="M22.994 11.954c.006-1.206-.452-2.662-2.571-3.05a9.385 9.385 0 0 0-.364-.633c1.068-1.479.986-2.851-.248-4.085-1.235-1.236-2.607-1.317-4.087-.245a8.374 8.374 0 0 0-.627-.36c-.382-2.112-1.824-2.58-3.027-2.58-1.69 0-2.771.891-3.086 2.624-.208.109-.418.23-.629.362-1.473-1.064-2.846-.973-4.093.272C3.019 5.503 2.929 6.877 3.99 8.35a9.878 9.878 0 0 0-.366.633c-1.729.316-2.609 1.345-2.618 3.063-.006 1.206.452 2.662 2.571 3.05.11.21.231.421.365.633-1.069 1.479-.987 2.851.247 4.085 1.235 1.236 2.608 1.317 4.087.245.209.132.418.252.627.36.382 2.112 1.824 2.58 3.027 2.58 1.721 0 2.771-.891 3.086-2.624.208-.109.418-.23.629-.362 1.471 1.061 2.84.968 4.092-.272s1.334-2.618.273-4.092c.133-.212.255-.423.366-.632 1.729-.316 2.609-1.345 2.618-3.063Zm-3.369 1.147a1 1 0 0 0-.829.593 7.639 7.639 0 0 1-.839 1.419c-.282.385-.252.917.071 1.269 1.073 1.166.713 1.527.295 1.945-.435.436-.78.78-1.943-.296a1.002 1.002 0 0 0-1.27-.072 7.486 7.486 0 0 1-1.416.834 1.001 1.001 0 0 0-.595.831c-.118 1.37-.6 1.373-1.157 1.375-.565 0-1.018.006-1.122-1.326a.998.998 0 0 0-.603-.841 7.139 7.139 0 0 1-1.405-.825.996.996 0 0 0-1.272.07c-1.179 1.087-1.532.732-1.939.324-.409-.409-.762-.763.322-1.94a.999.999 0 0 0 .068-1.272 7.183 7.183 0 0 1-.83-1.407.999.999 0 0 0-.839-.602c-1.325-.106-1.323-.555-1.32-1.123.003-.581.005-1.04 1.369-1.158a1 1 0 0 0 .829-.593c.202-.457.484-.935.839-1.42a1.002 1.002 0 0 0-.071-1.269c-1.073-1.165-.712-1.526-.295-1.944.435-.435.78-.779 1.943.295a1 1 0 0 0 1.269.072c.484-.354.96-.634 1.417-.834.335-.147.563-.465.595-.831.118-1.37.6-1.373 1.157-1.375.573.004 1.018-.006 1.122 1.326a.998.998 0 0 0 .603.841c.454.195.927.472 1.405.825.385.284.919.255 1.271-.069 1.179-1.087 1.531-.732 1.939-.324.409.409.763.763-.322 1.94a1 1 0 0 0-.069 1.272c.356.481.635.955.83 1.407.146.341.47.573.839.602 1.325.106 1.323.555 1.32 1.123-.003.581-.005 1.04-1.369 1.158Z" fill="#ffffff" opacity="1" data-original="#000000"></path></g></svg>