<svg xmlns="http://www.w3.org/2000/svg" version="1.1" xmlns:xlink="http://www.w3.org/1999/xlink" width="512" height="512" x="0" y="0" viewBox="0 0 16 16" style="enable-background:new 0 0 512 512" xml:space="preserve" class=""><g><g fill="#000"><path d="M10.281 1a1.18 1.18 0 0 0-.54.158c-1.345.743-2.738.38-3.48-.005A1.247 1.247 0 0 0 5.719 1c0 .433.135.837.368 1.174.92.397 2.357.683 3.808.025A2.06 2.06 0 0 0 10.281 1z" fill="#3291d5" opacity="1" data-original="#000000" class=""></path><g fill-rule="evenodd" clip-rule="evenodd"><path d="M14.566 7.151a1 1 0 0 1-1.403.266l-.6-.417v7a1 1 0 0 1-1 1H4.437a1 1 0 0 1-1-1V6.914l-.59.446a1 1 0 0 1-1.435-.243L.42 5.631a1 1 0 0 1 .073-1.206L2.84 1.696A2 2 0 0 1 4.356 1h1.363C5.719 2.19 6.74 3.154 8 3.154S10.281 2.19 10.281 1h1.374a2 2 0 0 1 1.52.7l2.333 2.725a1 1 0 0 1 .072 1.205zm-.832-.554 1.014-1.522-2.333-2.725a1 1 0 0 0-.76-.35h-.54C10.674 3.276 9.412 4.154 8 4.154c-1.412 0-2.674-.878-3.115-2.154h-.53a1 1 0 0 0-.758.348L1.253 5.076l1.013 1.52 1.375-1.01a.5.5 0 0 1 .796.402V14h7.126V6.043a.5.5 0 0 1 .785-.41z" fill="#3291d5" opacity="1" data-original="#000000" class=""></path><path d="M8 6a56.722 56.722 0 0 0 0 .5 1.5 1.5 0 1 0 3 0V5H8zm2 0H9v.004A54.134 54.134 0 0 0 9 6.5a.5.5 0 1 0 1 0v-.496z" fill="#3291d5" opacity="1" data-original="#000000" class=""></path></g></g></g></svg>