<svg xmlns="http://www.w3.org/2000/svg" version="1.1" xmlns:xlink="http://www.w3.org/1999/xlink" width="512" height="512" x="0" y="0" viewBox="0 0 16 16" style="enable-background:new 0 0 512 512" xml:space="preserve" class=""><g><g fill="#000" fill-rule="evenodd" clip-rule="evenodd"><path d="M4.694 4.689A1 1 0 0 0 5 3.984a1 1 0 0 1 .943-.982c.02.037.047.097.08.19.05.147.09.3.142.495l.059.221c.073.274.173.623.336.948.577 1.154 1.316 1.912 2.232 2.459.873.521 1.883.832 2.92 1.143a1 1 0 0 0 .28.044c.037.004.118.015.25.041.263.053.722.166 1.442.406C14.62 9.26 15 10.137 15 11H1v-1c0-.169.02-.332.06-.486.085-.342.202-.657.34-1.027.06-.16.124-.329.19-.515.202-.568.41-1.25.41-1.996v-.95C2.26 5.011 2.587 5 3 5c.288 0 .51-.01.68-.018l.096-.005c.118-.006.166-.009.203-.008a1 1 0 0 0 .715-.28zM2 4.024c-.207.01-.375.023-.51.032C1.12 4.083 1 4.091 1 4v1.976C1 6.7.742 7.393.483 8.085c-.147.393-.294.787-.394 1.187A3.007 3.007 0 0 0 0 10v2h16v-1c0-1.105-.5-2.5-2-3s-2-.5-2-.5c-2.113-.634-3.56-1.119-4.546-3.092-.14-.28-.227-.615-.314-.946C6.945 2.72 6.757 2 6 2a2 2 0 0 0-2 1.97l-.017-.001c-.074 0-.163.004-.275.01C3.536 3.988 3.31 4 3 4c-.406 0-.735.01-1 .024z" fill="#3291d5" opacity="1" data-original="#000000"></path><path d="M11.5 9V8h1v2H1V9z" fill="#3291d5" opacity="1" data-original="#000000"></path><path d="M1.5 3.5A.5.5 0 0 0 1 4c0-.031-.013.142.029.286a.778.778 0 0 0 .365.456c.166.099.374.159.62.197.25.04.571.061.986.061h.156c.3 0 .529 0 .708.003.124.002.213.006.277.01.049.184.14.455.395.813.294.41.792.92 1.664 1.574 1.105.829 2.337 1.095 3.394 1.162.529.033 1.02.016 1.435-.008l.404-.026c.231-.016.415-.028.567-.028v-1c-.186 0-.426.016-.681.033l-.348.023a10.9 10.9 0 0 1-1.315.007C8.713 7.505 7.695 7.271 6.8 6.6c-.825-.619-1.238-1.058-1.45-1.355a1.384 1.384 0 0 1-.262-.57l-.003-.011c-.016-.065-.056-.233-.177-.372a.803.803 0 0 0-.487-.252 3.703 3.703 0 0 0-.54-.037A45.209 45.209 0 0 0 3.155 4H3c-.385 0-.65-.02-.832-.049a1.542 1.542 0 0 1-.175-.036A.5.5 0 0 0 1.5 3.5zm2.77 1.53-.003-.001z" fill="#3291d5" opacity="1" data-original="#000000"></path><path d="m5 5 2-1 .447.894-2 1zM6 6.5l2-1 .447.894-2 1z" fill="#3291d5" opacity="1" data-original="#000000"></path></g></g></svg>