<svg xmlns="http://www.w3.org/2000/svg" version="1.1" xmlns:xlink="http://www.w3.org/1999/xlink" width="512" height="512" x="0" y="0" viewBox="0 0 512 512" style="enable-background:new 0 0 512 512" xml:space="preserve" class=""><g><path d="M271 31.449V15c0-8.284-6.716-15-15-15s-15 6.716-15 15v16.449C106.797 39.212 0 150.409 0 286a15 15 0 0 0 27.48 8.32c10.616-15.924 28.567-25.432 48.02-25.432s37.403 9.507 48.02 25.432a14.998 14.998 0 0 0 24.96 0c10.775-16.162 28.095-25.432 47.52-25.432 17.981 0 34.148 7.956 45 21.957V452c0 16.542-13.458 30-30 30s-30-13.458-30-30v-15c0-8.284-6.716-15-15-15s-15 6.716-15 15v15c0 33.084 26.916 60 60 60s60-26.916 60-60V290.846c10.852-14.001 27.019-21.957 45-21.957 19.425 0 36.744 9.27 47.52 25.432a14.998 14.998 0 0 0 24.96 0c10.616-15.924 28.567-25.432 48.02-25.432s37.403 9.507 48.02 25.432A14.999 14.999 0 0 0 512 286c0-135.591-106.797-246.788-241-254.551zM121.426 251.735C107.85 243.46 92.03 238.889 75.5 238.889c-15.182 0-29.774 3.839-42.571 10.875 13.144-80.472 69.32-146.754 144.168-174.608-36.914 46.894-53.046 116.276-55.671 176.579zM241 251.412a86.975 86.975 0 0 0-45-12.523 86.985 86.985 0 0 0-44.502 12.22c4.705-94.971 42.625-173.76 89.502-187.853v188.156zm75-12.523a86.976 86.976 0 0 0-45 12.524V63.256c46.877 14.093 84.798 92.882 89.502 187.853A86.985 86.985 0 0 0 316 238.889zm120.5 0c-16.53 0-32.35 4.572-45.926 12.846-2.631-60.439-18.811-129.754-55.671-176.579 74.848 27.855 131.024 94.136 144.168 174.608-12.797-7.036-27.389-10.875-42.571-10.875z" fill="#3291d5" opacity="1" data-original="#000000" class=""></path></g></svg>