<svg xmlns="http://www.w3.org/2000/svg" version="1.1" xmlns:xlink="http://www.w3.org/1999/xlink" width="512" height="512" x="0" y="0" viewBox="0 0 24 24" style="enable-background:new 0 0 512 512" xml:space="preserve"><g><path d="M15 6c0-3.309-2.691-6-6-6S3 2.691 3 6s2.691 6 6 6 6-2.691 6-6ZM9 9C7.346 9 6 7.654 6 6s1.346-3 3-3 3 1.346 3 3-1.346 3-3 3Zm-.012 6.314a1.5 1.5 0 0 1-1.303 1.674c-2.627.328-4.686 2.749-4.686 5.512a1.5 1.5 0 1 1-3 0c0-4.249 3.213-7.977 7.314-8.488a1.5 1.5 0 0 1 1.674 1.303ZM23 18.498l-.638-.376c.084-.362.138-.735.138-1.123s-.054-.76-.138-1.123L23 15.5a1.5 1.5 0 1 0-1.523-2.585l-.648.382a4.977 4.977 0 0 0-1.83-1.043v-.755a1.5 1.5 0 1 0-3 0v.755a4.977 4.977 0 0 0-1.83 1.043l-.648-.382a1.5 1.5 0 0 0-1.523 2.585l.638.376c-.084.362-.138.735-.138 1.123s.054.76.138 1.123l-.638.376a1.5 1.5 0 1 0 1.523 2.585l.648-.382a4.977 4.977 0 0 0 1.83 1.043v.755a1.5 1.5 0 1 0 3 0v-.755a4.977 4.977 0 0 0 1.83-1.043l.648.382A1.5 1.5 0 1 0 23 18.498Zm-5.5.001c-.827 0-1.5-.673-1.5-1.5s.673-1.5 1.5-1.5 1.5.673 1.5 1.5-.673 1.5-1.5 1.5Z" fill="#ffffff" opacity="1" data-original="#000000"></path></g></svg>