<svg xmlns="http://www.w3.org/2000/svg" version="1.1" xmlns:xlink="http://www.w3.org/1999/xlink" width="512" height="512" x="0" y="0" viewBox="0 0 16 16" style="enable-background:new 0 0 512 512" xml:space="preserve" class=""><g><g fill="#000" fill-rule="evenodd" clip-rule="evenodd"><path d="M8 5a5.5 5.5 0 0 1 5.5 5.5V13h1v-2.5a6.5 6.5 0 1 0-13 0V13h1v-2.5A5.5 5.5 0 0 1 8 5z" fill="#3291d5" opacity="1" data-original="#000000"></path><path d="M.5 13.5A1.5 1.5 0 0 1 2 12h12a1.5 1.5 0 0 1 0 3H2a1.5 1.5 0 0 1-1.5-1.5zM2 13a.5.5 0 0 0 0 1h12a.5.5 0 0 0 0-1zM9.058 2.71l.164.51.513.146c.48.137.765.532.765.933a.846.846 0 0 1-.022.19c.315.13.618.284.906.46.075-.204.116-.422.116-.65 0-.893-.628-1.648-1.49-1.895C9.749 1.592 8.948 1 8 1s-1.749.592-2.01 1.404C5.128 2.651 4.5 3.406 4.5 4.3c0 .228.04.447.116.65.288-.176.59-.33.906-.46A.845.845 0 0 1 5.5 4.3c0-.4.286-.796.765-.933l.513-.147.164-.509C7.064 2.33 7.466 2 8 2s.936.33 1.058.71z" fill="#3291d5" opacity="1" data-original="#000000"></path><path d="M5.401 8.301C4.78 9.951 4.5 11.891 4.5 13h-1c0-1.224.299-3.284.966-5.051.333-.885.77-1.729 1.336-2.36C6.373 4.95 7.104 4.5 8 4.5c.898 0 1.621.453 2.18 1.093.554.633.977 1.478 1.3 2.36.648 1.767.943 3.818 1.019 5.015L11.5 13c-.072-1.136-.354-3.053-.958-4.703-.303-.826-.674-1.543-1.114-2.046C8.994 5.755 8.524 5.5 8 5.5c-.526 0-1.006.257-1.452.755-.452.504-.836 1.222-1.147 2.046z" fill="#3291d5" opacity="1" data-original="#000000"></path></g></g></svg>