<svg id="Layer_1" enable-background="new 0 0 512 512" height="512" viewBox="0 0 512 512" width="512" xmlns="http://www.w3.org/2000/svg"><path d="m128 142c0-13.807 11.193-25 25-25s25 11.193 25 25-11.193 25-25 25-25-11.193-25-25zm309.02 295.02c48.351-48.353 74.98-112.64 74.98-181.02s-26.629-132.667-74.98-181.02c-48.353-48.351-112.64-74.98-181.02-74.98s-132.667 26.629-181.02 74.98c-48.351 48.353-74.98 112.64-74.98 181.02s26.629 132.667 74.98 181.02c48.353 48.351 112.64 74.98 181.02 74.98s132.667-26.629 181.02-74.98zm34.98-181.02c0 119.103-96.897 216-216 216s-216-96.897-216-216 96.897-216 216-216 216 96.897 216 216zm-75.5-64.298c-4.955-21.738-17.282-41.46-34.71-55.534-17.701-14.295-40.001-22.168-62.79-22.168-55.141 0-100 44.86-100 100v164c0 11.046 8.954 20 20 20s20-8.954 20-20v-69h77c11.046 0 20-8.954 20-20s-8.954-20-20-20h-77v-55c0-33.084 26.916-60 60-60 28.19 0 52.247 19.159 58.5 46.591 2.455 10.77 13.173 17.509 23.945 15.055 10.77-2.455 17.51-13.175 15.055-23.944z"/></svg>