<svg id="Layer_1" enable-background="new 0 0 512 512" height="512" viewBox="0 0 512 512" width="512" xmlns="http://www.w3.org/2000/svg"><path d="m128 142c0-13.807 11.193-25 25-25s25 11.193 25 25-11.193 25-25 25-25-11.193-25-25zm309.02 295.02c48.351-48.353 74.98-112.64 74.98-181.02s-26.629-132.667-74.98-181.02c-48.353-48.351-112.64-74.98-181.02-74.98s-132.667 26.629-181.02 74.98c-48.351 48.353-74.98 112.64-74.98 181.02s26.629 132.667 74.98 181.02c48.353 48.351 112.64 74.98 181.02 74.98s132.667-26.629 181.02-74.98zm34.98-181.02c0 119.103-96.897 216-216 216s-216-96.897-216-216 96.897-216 216-216 216 96.897 216 216zm-75.839 65.733c2.614-10.732-3.966-21.551-14.698-24.165-10.738-2.616-21.551 3.967-24.165 14.698-6.56 26.928-30.532 45.734-58.298 45.734-33.084 0-60-26.916-60-60v-84c0-33.084 26.916-60 60-60 28.19 0 52.247 19.159 58.5 46.591 2.455 10.77 13.172 17.509 23.945 15.055 10.77-2.455 17.51-13.175 15.055-23.945-4.955-21.738-17.282-41.46-34.71-55.534-17.701-14.294-40.001-22.167-62.79-22.167-55.141 0-100 44.86-100 100v84c0 55.14 44.859 100 100 100 46.269 0 86.223-31.362 97.161-76.267z"/></svg>