<svg id="Layer_1" enable-background="new 0 0 512 512" height="512" viewBox="0 0 512 512" width="512" xmlns="http://www.w3.org/2000/svg"><path d="m107 386c-21 0-25.097-.655-25.097-.655-46.071-5.47-81.903-44.573-81.903-91.845 0-28.843 13.276-55.51 35.5-72.856-1.662-7.559-2.5-15.297-2.5-23.144 0-57.677 45.653-104.89 102.724-107.395 7.084-22.836 20.529-43.434 38.889-59.214 23.176-19.92 52.79-30.891 83.387-30.891 33.388 0 64.987 12.782 88.979 35.99 19.343 18.711 32.084 42.582 36.879 68.591 71.746 6.514 128.142 67.004 128.142 140.419 0 63.379-42.652 119.311-103.724 136.015-.037.01-.075.021-.112.03-.629.168-6.396 1.679-15.226 2.991-10.934 1.616-21.099-5.919-22.722-16.845s5.919-21.099 16.845-22.721c6.176-.917 10.275-1.941 10.773-2.068 43.674-12 74.166-52.036 74.166-97.402 0-55.691-45.309-101-101-101-1.279 0-2.671.032-4.255.097-5.307.224-10.507-1.691-14.413-5.31-3.906-3.618-6.208-8.645-6.396-13.966-1.684-47.563-40.309-84.821-87.936-84.821-43.431 0-79.963 31.062-86.865 73.858-1.715 10.625-11.531 17.984-22.209 16.663-2.787-.346-5.622-.521-8.426-.521-37.22 0-67.5 30.28-67.5 67.5 0 8.45 1.539 16.687 4.575 24.483 3.697 9.495-.335 20.252-9.363 24.977-17.401 9.108-28.212 26.941-28.212 46.54 0 28.949 23.775 52.5 53 52.5h14c11.046 0 20 8.954 20 20s-8.954 20-20 20zm129.991 120.291 82.108-80.387c13.438-13.135 17.538-32.868 10.445-50.273-7.088-17.392-23.8-28.631-42.574-28.631h-75.94c-3.324 0-4.846-2.033-5.537-3.738-.694-1.713-1.019-4.245 1.366-6.56l86.054-83.334c7.936-7.684 8.139-20.346.454-28.281-7.684-7.935-20.346-8.139-28.28-.454l-86.069 83.349c-13.511 13.111-17.669 32.859-10.594 50.31 7.071 17.439 23.795 28.708 42.606 28.708h75.939c3.317 0 4.84 2.027 5.533 3.728.696 1.709 1.025 4.237-1.374 6.583l-82.12 80.398c-7.894 7.727-8.027 20.39-.3 28.283 3.917 4.001 9.103 6.008 14.292 6.008 5.049 0 10.1-1.899 13.991-5.709z"/></svg>