<svg id="Layer_1" enable-background="new 0 0 512.006 512.006" height="512" viewBox="0 0 512.006 512.006" width="512" xmlns="http://www.w3.org/2000/svg"><path d="m334.002 64.105c-11.046 0-20-8.954-20-20v-24.102c0-11.046 8.954-20 20-20s20 8.954 20 20v24.103c0 11.045-8.954 19.999-20 19.999zm140.936 98.162 23.012-7.169c10.546-3.286 16.431-14.498 13.146-25.044-3.285-10.545-14.491-16.432-25.044-13.146l-23.012 7.169c-10.546 3.286-16.431 14.498-13.146 25.044 2.669 8.565 10.565 14.056 19.089 14.056 1.969.001 3.974-.293 5.955-.91zm-40.836-79.4 14-19c6.552-8.892 4.655-21.413-4.237-27.965-8.893-6.551-21.412-4.656-27.966 4.237l-14 19c-6.552 8.892-4.655 21.413 4.237 27.965 3.572 2.632 7.728 3.9 11.849 3.9 6.137 0 12.196-2.817 16.117-8.137zm-169.102 2.136c8.837-6.627 10.627-19.164 4-28l-15-20c-6.628-8.836-19.162-10.629-28-4-8.837 6.627-10.627 19.164-4 28l15 20c3.93 5.239 9.935 8.001 16.016 8.001 4.174 0 8.386-1.303 11.984-4.001zm246.123 154.858c3.235-10.562-2.703-21.746-13.265-24.981l-23.046-7.06c-10.563-3.238-21.746 2.703-24.981 13.264-3.235 10.562 2.703 21.746 13.265 24.981l23.046 7.06c1.952.598 3.925.883 5.865.883 8.558 0 16.478-5.537 19.116-14.147zm-104.982 194.659c14.741-15.002 22.859-34.985 22.859-56.268 0-24.083-10.735-46.406-28.813-61.374 1.206-5.902 1.813-11.833 1.813-17.745 0-48.733-38.014-88.746-85.923-91.885-6.232-18.346-17.309-34.884-32.171-47.722-19.765-17.074-44.999-26.477-71.055-26.477-52.59 0-96.313 36.41-106.674 85.765-59.663 6.774-106.177 57.767-106.177 119.466 0 31.986 12.3 62.025 34.634 84.585 22.432 22.659 52.394 35.137 84.366 35.137 11.046 0 20-8.954 20-20s-8.954-20-20-20c-43.561 0-79-35.764-79-79.723 0-44.24 35.764-80.231 79.723-80.231 1.006 0 2.105.025 3.361.077 5.304.224 10.506-1.691 14.413-5.31 3.906-3.618 6.208-8.645 6.396-13.965 1.307-36.898 31.596-65.801 68.958-65.801 33.484 0 62.769 25.014 68.118 58.185 1.714 10.625 11.53 17.988 22.207 16.663.912-.113 6.028-.848 6.823-.848 28.673 0 52 23.365 52 52.084 0 6.19-1.254 12.55-3.728 18.901-3.697 9.496.335 20.252 9.362 24.978 13.179 6.897 21.365 20.4 21.365 35.24 0 22.291-17.131 39.751-39 39.751-11.046 0-20 8.954-20 20s8.954 20 20 20c21.324 0 41.263-8.34 56.143-23.483zm-.141-228.517c-11.046 0-20-8.954-20-20 0-28.673-23.487-52-52.357-52-6.795 0-12.334.68-16.463 2.021-10.508 3.411-21.789-2.337-25.201-12.842-3.413-10.505 2.337-21.788 12.842-25.201 8.241-2.677 17.669-3.979 28.822-3.979 50.926 0 92.357 41.271 92.357 92 0 11.047-8.954 20.001-20 20.001zm-236 200c0 13.807 11.193 25 25 25s25-11.193 25-25-11.193-25-25-25-25 11.193-25 25zm0 81c0 13.807 11.193 25 25 25s25-11.193 25-25-11.193-25-25-25-25 11.193-25 25zm80-81c0 13.807 11.193 25 25 25s25-11.193 25-25-11.193-25-25-25-25 11.193-25 25zm-80-80c0 13.807 11.193 25 25 25s25-11.193 25-25-11.193-25-25-25-25 11.193-25 25zm80 0c0 13.807 11.193 25 25 25s25-11.193 25-25-11.193-25-25-25-25 11.193-25 25z"/></svg>