<svg id="Layer_1" enable-background="new 0 0 512.108 512.108" height="512" viewBox="0 0 512.108 512.108" width="512" xmlns="http://www.w3.org/2000/svg"><path d="m433.108 458.02c-11.046 0-20-8.955-20-20s8.954-20 20-20c21.869 0 39-17.461 39-39.751 0-14.839-8.187-28.343-21.365-35.24-9.028-4.726-13.06-15.482-9.362-24.978 2.474-6.351 3.728-12.71 3.728-18.901 0-28.719-23.327-52.083-52-52.083-.795 0-5.911.735-6.823.848-10.677 1.327-20.493-6.039-22.207-16.663-5.35-33.171-34.634-58.185-68.118-58.185-37.362 0-67.651 28.903-68.958 65.801-.188 5.321-2.49 10.347-6.396 13.965s-9.109 5.537-14.413 5.31c-1.256-.051-2.355-.077-3.361-.077-43.959 0-79.723 35.992-79.723 80.231 0 43.959 35.439 79.723 79 79.723 11.046 0 20 8.955 20 20s-8.954 20-20 20c-31.973 0-61.935-12.479-84.366-35.137-22.334-22.56-34.634-52.6-34.634-84.585 0-61.699 46.514-112.692 106.178-119.466 10.36-49.354 54.084-85.765 106.674-85.765 26.056 0 51.29 9.403 71.055 26.477 14.862 12.838 25.938 29.376 32.171 47.722 47.909 3.14 85.923 43.152 85.923 91.885 0 5.912-.607 11.842-1.813 17.745 18.078 14.969 28.813 37.292 28.813 61.374 0 21.283-8.118 41.266-22.859 56.268-14.883 15.142-34.821 23.482-56.144 23.482zm-382.649-154.227c9.823-5.05 13.693-17.108 8.643-26.932-12.675-24.652-19.102-51.316-19.102-79.251 0-77.949 35.635-130.836 105.915-157.193.765-.287 2.799-1.049 4.643 1.292 1.829 2.324.62 4.107.165 4.778-20.032 29.53-30.62 64.484-30.62 101.084 0 17.987 4.392 32.759 4.893 34.385 3.253 10.556 14.45 16.476 25.003 13.224 10.556-3.253 16.477-14.447 13.224-25.003-.031-.101-3.119-10.658-3.119-22.605 0-28.562 8.203-55.751 23.723-78.63 10.986-16.196 10.266-36.596-1.835-51.971-12.111-15.387-31.787-20.884-50.123-14.007-37.514 14.069-67.69 35.084-89.691 62.462-27.988 34.826-42.178 79.299-42.178 132.184 0 33.875 8.136 67.604 23.527 97.541 3.547 6.898 10.547 10.86 17.804 10.86 3.078 0 6.202-.713 9.128-2.218zm227.649 77.274c13.807 0 25 11.193 25 25s-11.193 25-25 25-25-11.193-25-25 11.193-25 25-25zm-25 106c0 13.807 11.193 25 25 25s25-11.193 25-25-11.193-25-25-25-25 11.193-25 25zm80-81c0 13.807 11.193 25 25 25s25-11.193 25-25-11.193-25-25-25-25 11.193-25 25zm-80-80c0 13.807 11.193 25 25 25s25-11.193 25-25-11.193-25-25-25-25 11.193-25 25zm80 0c0 13.807 11.193 25 25 25s25-11.193 25-25-11.193-25-25-25-25 11.193-25 25z"/></svg>