<svg id="Layer_1" enable-background="new 0 0 512 512" height="512" viewBox="0 0 512 512" width="512" xmlns="http://www.w3.org/2000/svg"><path d="m465.977 418.982c-14.307 0-28.94-6.413-40.148-17.595l-.483-.482c-6.572-6.556-17.246-6.555-23.807-.011l-.491.491c-22.14 22.088-58.162 22.088-80.3.003l-.497-.496c-6.558-6.542-17.231-6.541-23.793.002l-.506.504c-11.061 11.035-25.599 16.553-40.133 16.554-14.542.001-29.081-5.52-40.152-16.565l-.484-.482c-6.572-6.556-17.246-6.555-23.807-.011l-.491.491c-22.141 22.087-58.161 22.088-80.3.003l-.388-.388c-3.16-3.152-7.384-4.896-11.881-4.896-.014 0-.027 0-.041 0-4.512.011-8.743 1.775-11.914 4.969-10.826 10.903-25.151 16.908-40.338 16.908-.013 0-.023 0-.036 0-14.991-.009-29.237-5.99-40.113-16.842-7.819-7.801-7.834-20.464-.032-28.284s20.465-7.833 28.284-.032c3.283 3.275 7.615 5.156 11.887 5.158h.01c4.449 0 8.693-1.808 11.954-5.091 10.712-10.789 24.99-16.749 40.204-16.785h.139c15.163 0 29.414 5.889 40.145 16.594l.388.387c6.541 6.526 17.217 6.527 23.779-.017l.491-.491c22.141-22.088 58.162-22.088 80.299-.003l.484.482c6.572 6.556 17.246 6.555 23.807.011l.506-.504c22.127-22.075 58.148-22.073 80.285.011l.497.496c6.56 6.543 17.234 6.542 23.794-.003l.491-.49c22.141-22.088 58.162-22.088 80.299-.003l.484.482c3.667 3.658 8.225 5.923 11.908 5.923 3.531 0 8.09-2.36 11.898-6.16 7.82-7.801 20.483-7.785 28.284.035s7.786 20.483-.034 28.285c-11.366 11.339-25.999 17.842-40.148 17.842zm.036 93c14.989-.009 29.235-5.99 40.112-16.84 7.82-7.801 7.835-20.464.034-28.285-7.801-7.819-20.464-7.835-28.284-.035-3.284 3.276-7.617 5.157-11.888 5.16-.004 0-.007 0-.011 0-4.496 0-8.722-1.744-11.908-4.923l-.484-.482c-22.137-22.085-58.158-22.085-80.299.003l-.491.49c-6.56 6.546-17.234 6.546-23.794.003l-.497-.496c-22.137-22.084-58.158-22.086-80.285-.011l-.506.504c-6.561 6.544-17.234 6.544-23.807-.011l-.484-.482c-22.137-22.085-58.158-22.085-80.299.003l-.491.491c-6.563 6.544-17.238 6.543-23.779.017l-.388-.387c-10.73-10.705-24.981-16.594-40.145-16.594-.045 0-.094 0-.139 0-15.214.036-29.492 5.997-40.204 16.785-3.261 3.284-7.505 5.091-11.954 5.091-.003 0-.007 0-.01 0-4.271-.002-8.604-1.883-11.887-5.158-7.819-7.801-20.482-7.788-28.284.032s-7.787 20.483.032 28.284c10.876 10.852 25.122 16.833 40.113 16.842h.036c15.187 0 29.512-6.004 40.338-16.908 3.171-3.194 7.402-4.958 11.914-4.969h.041c4.497 0 8.721 1.744 11.881 4.896l.387.387c22.139 22.085 58.159 22.084 80.3-.003l.491-.491c6.561-6.544 17.234-6.544 23.807.011l.484.482c11.071 11.045 25.61 16.566 40.152 16.565 14.534-.001 29.072-5.52 40.133-16.554l.506-.504c6.562-6.543 17.235-6.544 23.793-.002l.497.496c22.138 22.085 58.16 22.084 80.3-.003l.491-.491c6.561-6.544 17.234-6.544 23.807.011l.483.481c10.728 10.703 24.983 16.595 40.147 16.595zm40.112-205.84c7.82-7.801 7.835-20.464.034-28.285-7.801-7.819-20.464-7.835-28.284-.035-3.809 3.799-8.367 6.16-11.898 6.16-3.684 0-8.241-2.265-11.908-5.923l-.484-.482c-22.137-22.085-58.158-22.085-80.299.003l-.491.49c-6.56 6.546-17.234 6.546-23.794.003l-.497-.496c-22.137-22.084-58.158-22.086-80.285-.011l-.506.504c-6.561 6.544-17.234 6.544-23.807-.011l-.484-.482c-22.137-22.085-58.158-22.085-80.299.003l-.491.491c-6.563 6.544-17.238 6.543-23.779.017l-.388-.387c-10.73-10.705-24.981-16.594-40.145-16.594-.045 0-.094 0-.139 0-15.214.036-29.492 5.997-40.204 16.785-3.261 3.284-7.505 5.091-11.954 5.091-.003 0-.007 0-.01 0-4.271-.002-8.604-1.883-11.887-5.158-7.819-7.801-20.482-7.788-28.284.032s-7.787 20.483.032 28.284c10.876 10.852 25.122 16.833 40.113 16.842h.036c15.187 0 29.512-6.004 40.338-16.908 3.171-3.194 7.402-4.958 11.914-4.969h.041c4.497 0 8.721 1.744 11.881 4.896l.387.387c22.139 22.085 58.159 22.084 80.3-.003l.491-.491c6.561-6.544 17.234-6.544 23.807.011l.484.482c11.071 11.045 25.61 16.566 40.152 16.565 14.534-.001 29.072-5.52 40.133-16.554l.506-.504c6.562-6.543 17.235-6.544 23.793-.002l.497.496c22.138 22.085 58.16 22.084 80.3-.003l.491-.491c6.561-6.544 17.234-6.544 23.807.011l.483.482c11.208 11.182 25.842 17.595 40.148 17.595 14.15-.001 28.783-6.504 40.149-17.841zm-314.125-221.16c-5.104 0-10.207-1.941-14.109-5.825-7.828-7.792-7.858-20.456-.065-28.285l31.672-31.82c25.37-25.369 66.602-25.375 91.944-.044l31.729 31.861c7.795 7.826 7.769 20.49-.058 28.284-7.826 7.794-20.489 7.768-28.284-.059l-31.697-31.828c-9.717-9.711-25.575-9.708-35.317.038l-31.64 31.787c-3.908 3.927-9.041 5.891-14.175 5.891zm84 122v-113c0-11.046-8.954-20-20-20s-20 8.954-20 20v113c0 11.046 8.954 20 20 20s20-8.954 20-20z"/></svg>