<svg id="Layer_1" enable-background="new 0 0 512 512" height="512" viewBox="0 0 512 512" width="512" xmlns="http://www.w3.org/2000/svg"><path d="m313.002 512c-5.249 0-10.49-2.053-14.417-6.135-7.657-7.961-7.412-20.622.549-28.279l59.26-57c7.96-7.658 20.622-7.412 28.279.549s7.412 20.622-.549 28.279l-59.26 57c-3.878 3.731-8.874 5.586-13.862 5.586zm116.863-5.586 59.26-57c7.961-7.657 8.207-20.318.549-28.279-7.657-7.961-20.318-8.208-28.279-.549l-59.26 57c-7.961 7.657-8.207 20.318-.549 28.279 3.926 4.082 9.167 6.135 14.417 6.135 4.987 0 9.983-1.855 13.862-5.586zm-316.865-140.414c0-11.046-8.954-20-20-20-29.224 0-53-23.551-53-52.5 0-19.6 10.811-37.433 28.212-46.54 9.028-4.725 13.061-15.483 9.362-24.979-3.035-7.793-4.574-16.03-4.574-24.481 0-37.22 30.28-67.5 67.5-67.5 2.803 0 5.638.175 8.427.521 10.675 1.324 20.495-6.039 22.208-16.663 6.902-42.796 43.434-73.858 86.865-73.858 47.626 0 86.252 37.258 87.936 84.821.188 5.321 2.49 10.348 6.396 13.966s9.107 5.537 14.413 5.31c1.584-.065 2.975-.097 4.255-.097 55.691 0 101 45.309 101 101 0 45.405-30.543 85.47-74.277 97.432-10.654 2.915-16.929 13.914-14.015 24.568 2.915 10.654 13.915 16.929 24.568 14.015 61.072-16.704 103.724-72.636 103.724-136.015 0-73.415-56.396-133.905-128.143-140.419-4.795-26.009-17.536-49.88-36.878-68.591-23.991-23.208-55.591-35.99-88.979-35.99-30.597 0-60.211 10.971-83.388 30.891-18.359 15.78-31.804 36.377-38.889 59.214-57.07 2.505-102.723 49.718-102.723 107.395 0 7.846.838 15.585 2.5 23.144-22.224 17.346-35.5 44.013-35.5 72.856 0 51.005 41.72 92.5 93 92.5 11.046 0 20-8.954 20-20zm104.839 140.303 82.26-80.399c13.438-13.134 17.539-32.867 10.446-50.272-7.088-17.394-23.8-28.632-42.576-28.632h-75.938c-3.324 0-4.846-2.033-5.538-3.738-.695-1.713-1.019-4.245 1.381-6.575l85.868-83.334c7.927-7.692 8.116-20.354.423-28.281-7.692-7.927-20.354-8.116-28.281-.423l-85.868 83.334c-13.51 13.112-17.668 32.859-10.592 50.31 7.072 17.438 23.796 28.707 42.607 28.707h75.938c3.318 0 4.84 2.027 5.534 3.728.696 1.709 1.025 4.236-1.363 6.57l-82.26 80.398c-7.899 7.721-8.044 20.383-.324 28.283 3.918 4.009 9.109 6.021 14.305 6.021 5.042 0 10.088-1.895 13.978-5.697z"/></svg>