<svg id="Layer_1" enable-background="new 0 0 512 512" height="512" viewBox="0 0 512 512" width="512" xmlns="http://www.w3.org/2000/svg"><path d="m492 275.995h-20c-11.046 0-20-8.954-20-20s8.954-20 20-20h20c11.046 0 20 8.954 20 20s-8.954 20-20 20zm-432-20c0-11.046-8.954-20-20-20h-20c-11.046 0-20 8.954-20 20s8.954 20 20 20h20c11.046 0 20-8.954 20-20zm325.833-173.779 10.442-17.058c5.767-9.421 2.805-21.733-6.615-27.5-9.421-5.766-21.733-2.805-27.5 6.615l-10.442 17.058c-5.767 9.421-2.805 21.733 6.615 27.5 3.259 1.995 6.863 2.945 10.423 2.945 6.732 0 13.305-3.399 17.077-9.56zm-227.845 4.045c9.565-5.523 12.842-17.755 7.319-27.321l-10.001-17.32c-5.524-9.566-17.756-12.843-27.321-7.319-9.565 5.523-12.842 17.755-7.319 27.321l10.001 17.32c3.705 6.416 10.427 10.002 17.338 10.002 3.394 0 6.833-.864 9.983-2.683zm320.951 295.34c5.42-9.625 2.011-21.82-7.613-27.24l-17.427-9.813c-9.624-5.42-21.82-2.011-27.24 7.613-5.42 9.625-2.011 21.82 7.613 27.24l17.427 9.813c3.102 1.747 6.472 2.577 9.795 2.577 6.988 0 13.773-3.667 17.445-10.19zm-393.849-221.78c5.419-9.625 2.01-21.821-7.614-27.24l-17.427-9.813c-9.625-5.417-21.82-2.01-27.24 7.614-5.419 9.625-2.01 21.821 7.614 27.24l17.427 9.813c3.103 1.747 6.471 2.576 9.794 2.576 6.988.001 13.773-3.667 17.446-10.19zm369.181 8.451 17.468-9.739c9.647-5.379 13.108-17.56 7.729-27.208-5.378-9.647-17.56-13.108-27.208-7.729l-17.468 9.739c-9.647 5.379-13.108 17.56-7.729 27.208 3.66 6.564 10.469 10.264 17.486 10.264 3.297.001 6.639-.815 9.722-2.535zm-181.271-128.268v-19.999c0-11.046-8.954-20-20-20s-20 8.954-20 20v19.999c0 11.046 8.954 20 20 20s20-8.954 20-20zm-213.771 347.996 17.487-9.706c9.658-5.36 13.142-17.535 7.782-27.193-5.361-9.659-17.536-13.142-27.193-7.782l-17.487 9.706c-9.658 5.36-13.142 17.535-7.782 27.193 3.654 6.584 10.474 10.298 17.505 10.298 3.283.001 6.613-.809 9.688-2.516zm331.218-52.843c14.1-23.902 21.553-51.275 21.553-79.162 0-86.019-69.981-156-156-156s-156 69.981-156 156c0 26.501 6.771 52.685 19.581 75.72 5.368 9.653 17.545 13.127 27.199 7.759 9.653-5.368 13.127-17.546 7.759-27.199-9.512-17.104-14.539-36.566-14.539-56.28 0-63.962 52.038-116 116-116s116 52.038 116 116c0 20.743-5.534 41.089-16.005 58.838-5.612 9.514-2.449 21.775 7.064 27.388 3.19 1.882 6.689 2.777 10.143 2.777 6.846 0 13.515-3.518 17.245-9.841zm-197.447 55.838c-5.103 0-10.206-1.941-14.109-5.825-7.829-7.792-7.858-20.456-.066-28.285l31.672-31.82c25.371-25.37 66.602-25.375 91.945-.044l31.729 31.861c7.794 7.827 7.768 20.49-.059 28.284-7.826 7.795-20.489 7.769-28.284-.059l-31.697-31.828c-9.715-9.71-25.573-9.708-35.318.038l-31.639 31.787c-3.907 3.927-9.04 5.891-14.174 5.891zm84 101v-92c0-11.046-8.954-20-20-20s-20 8.954-20 20v92c0 11.046 8.954 20 20 20s20-8.954 20-20z"/></svg>