<svg id="Layer_1" enable-background="new 0 0 512 512" height="512" viewBox="0 0 512 512" width="512" xmlns="http://www.w3.org/2000/svg"><path d="m25.038 512c-11.046 0-20-8.954-20-20v-472c0-11.046 8.954-20 20-20s20 8.954 20 20v472c0 11.046-8.954 20-20 20zm170.152-316.248c32.515-16.872 56.658-42.414 73.812-78.084 4.787-9.954.598-21.905-9.356-26.692-9.958-4.788-21.906-.597-26.692 9.357-13.447 27.962-31.301 47.001-56.188 59.916-9.805 5.087-13.628 17.16-8.54 26.964 3.56 6.861 10.538 10.792 17.769 10.792 3.102-.001 6.252-.725 9.195-2.253zm231.653 227.705c18.027-9.422 32.53-19.838 43.105-30.957 10.994-11.558 21.352-27.67 30.786-47.891 10.125-21.704 7.778-47.326-6.124-66.869-.063-.089-.127-.177-.191-.265l-171.189-232.506c-17.528-24.23-45.761-37.611-75.562-35.811l-101.905 6.169c-31.9 1.932-57.185 28.501-57.562 60.49l-1.217 103.74c-.336 28.649 13.452 55.598 36.889 72.104l233.988 167.256c.073.052.146.103.219.154 11.42 7.935 24.688 11.96 38.011 11.96 10.512 0 21.056-2.506 30.752-7.574zm-279.775-204.384c-.043-.031-.086-.061-.128-.091-12.679-8.914-20.14-23.476-19.958-38.956l1.217-103.739c.131-11.124 8.907-20.362 19.981-21.033l101.905-6.169c16.075-.971 31.314 6.27 40.77 19.378.038.052.076.104.114.156l171.126 232.421c5.501 7.818 6.418 18.02 2.389 26.658-7.494 16.061-15.626 28.936-23.52 37.234-7.436 7.817-18.727 15.796-32.652 23.075-8.711 4.554-19.166 3.893-27.315-1.721zm107.927 29.931c-7.23 0-14.209-3.931-17.769-10.792-5.088-9.804-1.265-21.876 8.54-26.964 17.53-9.096 30.676-23.134 40.187-42.915 4.786-9.954 16.735-14.144 26.692-9.357 9.954 4.787 14.144 16.737 9.356 26.692-13.403 27.872-32.313 47.853-57.813 61.085-2.941 1.527-6.09 2.251-9.193 2.251zm80.196 43.748c15.002-7.786 27.364-20.6 34.812-36.084 4.787-9.954.599-21.905-9.356-26.692-9.954-4.788-21.905-.598-26.692 9.356-3.663 7.618-9.929 14.148-17.188 17.916-9.804 5.088-13.627 17.16-8.539 26.964 3.561 6.86 10.539 10.792 17.769 10.792 3.101 0 6.25-.724 9.194-2.252zm65.824 50.928c7.201-4.765 13.959-11.956 19.028-20.249 5.761-9.424 2.791-21.734-6.633-27.495-9.425-5.76-21.734-2.793-27.496 6.633-2.226 3.641-5.105 6.517-6.972 7.751-9.212 6.095-11.738 18.503-5.644 27.715 3.848 5.815 10.211 8.966 16.698 8.966 3.79.001 7.622-1.074 11.019-3.321z"/></svg>