<svg id="Layer_1" enable-background="new 0 0 512 512" height="512" viewBox="0 0 512 512" width="512" xmlns="http://www.w3.org/2000/svg"><path d="m335 498.73c-8.228 0-15.936-5.115-18.847-13.312-3.696-10.409 1.744-21.843 12.153-25.54 85.948-30.524 143.694-112.347 143.694-203.606 0-90.383-57.011-171.942-141.864-202.947-10.375-3.791-15.712-15.274-11.921-25.649 3.79-10.374 15.27-15.715 25.649-11.921 48.807 17.834 90.595 49.731 120.847 92.243 30.936 43.473 47.289 94.745 47.289 148.274 0 108.151-68.441 205.122-170.307 241.3-2.212.785-4.472 1.158-6.693 1.158zm-77.91-2.414c12.018-10.193 18.91-25.071 18.91-40.818v-398.996c0-15.748-6.893-30.625-18.91-40.818-11.982-10.163-27.73-14.52-43.204-11.962-59.128 9.782-113.267 40.348-152.444 86.066-39.622 46.24-61.442 105.268-61.442 166.212s21.82 119.972 61.442 166.211c39.177 45.719 93.315 76.285 152.443 86.066 2.907.481 5.822.717 8.723.717 12.536.001 24.751-4.425 34.482-12.678zm-25.874-450.127c1.827 1.467 4.784 4.87 4.784 10.313v398.995c0 5.443-2.997 8.798-4.784 10.313-1.765 1.497-5.522 3.878-10.801 3.003-104.54-17.293-180.415-106.795-180.415-212.813s75.875-195.52 180.415-212.814c.784-.13 5.585-1.186 10.801 3.003z"/></svg>