<svg id="Layer_1" enable-background="new 0 0 512 512" height="512" viewBox="0 0 512 512" width="512" xmlns="http://www.w3.org/2000/svg"><path d="m335 503.249c-8.228 0-15.937-5.116-18.847-13.313-3.697-10.408 1.745-21.844 12.153-25.54 85.948-30.524 143.694-112.347 143.694-203.606 0-90.383-57.011-171.941-141.864-202.947-10.375-3.791-15.712-15.274-11.921-25.649s15.276-15.713 25.649-11.921c48.807 17.834 90.594 49.731 120.846 92.243 30.937 43.473 47.29 94.746 47.29 148.274 0 108.151-68.441 205.122-170.307 241.3-2.212.786-4.471 1.159-6.693 1.159zm-86.308-503.151c.195-.005-.194 0 0 0zm33.268 488.956c-2.725 11.047-12.724 22.851-32.615 22.851-66.748 0-129.541-27.001-176.812-76.029-22.742-23.588-40.607-50.964-53.1-81.368-12.895-31.384-19.433-64.527-19.433-98.511 0-67.058 25.748-130.451 72.5-178.505 46.657-47.955 109.412-75.446 176.192-77.394 21.285 0 31.683 13.539 33.861 25.133 2.747 14.613-5.082 29.565-18.28 35.166-75.505 35.473-124.273 112.2-124.273 195.6 0 81.576 46.916 154.921 125.501 196.197 12.684 6.662 19.914 22.853 16.459 36.86zm-65.47-19.805c-29.775-20.502-55.182-46.077-74.534-75.222-27.448-41.338-41.956-89.068-41.956-138.03 0-49.644 14.234-97.798 41.163-139.257 18.641-28.699 42.661-53.211 70.627-72.289-98.881 20.215-171.79 106.85-171.79 211.546 0 107.527 76.607 196.947 176.49 213.252z"/></svg>