<svg id="Layer_1" enable-background="new 0 0 512 512" height="512" viewBox="0 0 512 512" width="512" xmlns="http://www.w3.org/2000/svg"><path d="m177 503.248c-2.222 0-4.479-.373-6.693-1.159-101.866-36.178-170.307-133.149-170.307-241.3 0-53.528 16.353-104.801 47.29-148.275 30.252-42.512 72.04-74.408 120.846-92.242 10.376-3.794 21.858 1.548 25.649 11.921 3.791 10.375-1.546 21.858-11.921 25.649-84.853 31.005-141.864 112.563-141.864 202.947 0 91.259 57.746 173.082 143.693 203.606 10.409 3.696 15.85 15.132 12.153 25.54-2.91 8.196-10.619 13.313-18.846 13.313zm262.467-67.375c22.742-23.587 40.607-50.964 53.1-81.368 12.895-31.383 19.433-64.526 19.433-98.51 0-67.058-25.748-130.452-72.5-178.505-46.657-47.955-109.13-75.437-175.91-77.385-.194-.006-.389-.009-.583-.009-21.285 0-31.382 13.54-33.561 25.135-2.746 14.611 5.084 29.563 18.279 35.163 75.506 35.474 124.275 112.202 124.275 195.601 0 81.577-46.916 154.922-125.501 196.197-12.684 6.662-19.914 22.854-16.458 36.859 2.725 11.047 12.723 22.852 32.614 22.852 66.748 0 129.541-27.001 176.812-76.03zm32.533-179.878c0 107.527-76.608 196.948-176.492 213.253 29.775-20.502 55.184-46.078 74.536-75.223 27.448-41.337 41.956-89.068 41.956-138.03 0-49.644-14.234-97.798-41.163-139.257-18.641-28.699-42.662-53.211-70.628-72.289 98.882 20.215 171.791 106.85 171.791 211.546z"/></svg>