<svg id="Layer_1" enable-background="new 0 0 512 512" height="512" viewBox="0 0 512 512" width="512" xmlns="http://www.w3.org/2000/svg"><path d="m177 498.459c-2.222 0-4.479-.373-6.693-1.159-101.866-36.178-170.307-133.148-170.307-241.3 0-53.528 16.353-104.8 47.29-148.275 30.252-42.512 72.04-74.408 120.846-92.242 10.376-3.794 21.858 1.547 25.649 11.921 3.791 10.375-1.546 21.858-11.921 25.649-84.853 31.005-141.864 112.564-141.864 202.947 0 91.259 57.746 173.082 143.693 203.606 10.409 3.696 15.85 15.132 12.153 25.54-2.91 8.196-10.619 13.313-18.846 13.313zm121.114 9.819c59.128-9.781 113.267-40.348 152.443-86.066 39.622-46.24 61.443-105.268 61.443-166.212s-21.821-119.972-61.442-166.211c-39.176-45.719-93.315-76.285-152.443-86.066-15.478-2.563-31.223 1.8-43.204 11.962-12.018 10.193-18.911 25.07-18.911 40.818v398.994c0 15.748 6.893 30.625 18.911 40.818 9.731 8.254 21.945 12.68 34.482 12.68 2.898 0 5.815-.236 8.721-.717zm-6.528-465.092c104.539 17.295 180.414 106.796 180.414 212.814s-75.875 195.52-180.414 212.814c-5.291.868-9.037-1.507-10.802-3.004-1.787-1.516-4.784-4.87-4.784-10.313v-398.994c0-5.443 2.997-8.798 4.784-10.313 1.503-1.275 4.447-3.191 8.553-3.191.715-.001 1.465.058 2.249.187z"/></svg>