<svg id="Layer_1" enable-background="new 0 0 512 512" height="512" viewBox="0 0 512 512" width="512" xmlns="http://www.w3.org/2000/svg"><path d="m146.506 109v-89c0-11.046 8.954-20 20-20s20 8.954 20 20v89c0 11.046-8.954 20-20 20s-20-8.954-20-20zm109.999-26c11.046 0 20-8.954 20-20v-43c0-11.046-8.954-20-20-20s-20 8.954-20 20v43c.001 11.046 8.955 20 20 20zm180 86c11.046 0 20-8.954 20-20v-129c0-11.046-8.954-20-20-20s-20 8.954-20 20v129c0 11.046 8.955 20 20 20zm-90-40c11.046 0 20-8.954 20-20v-89c0-11.046-8.954-20-20-20s-20 8.954-20 20v89c0 11.046 8.955 20 20 20zm-269.999 40c11.046 0 20-8.954 20-20v-129c0-11.046-8.954-20-20-20s-20 8.954-20 20v129c0 11.046 8.954 20 20 20zm179.484 26.566c81.729 0 151.592 53.198 169.893 129.369 1.497 6.227.283 12.572-3.417 17.868-3.764 5.387-9.429 8.77-15.951 9.524-20.205 2.339-44.37 4.092-71.823 5.209-11.037.449-19.619 9.761-19.17 20.797.438 10.76 9.298 19.187 19.969 19.187.274 0 .551-.005.828-.017 28.443-1.158 53.608-2.988 74.796-5.441 17.79-2.059 33.878-11.663 44.14-26.349 10.198-14.596 13.669-32.865 9.522-50.123-21.077-87.725-96.961-150.806-188.271-159.087v-12.418c0-11.046-8.954-20-20-20s-20 8.954-20 20v12.323c-91.722 7.896-168.085 71.082-189.276 159.076-4.154 17.251-.69 35.515 9.504 50.108 10.275 14.708 26.394 24.325 44.223 26.383 35.962 4.15 81.491 6.477 135.549 6.931v53.094c0 11.028-8.972 20-20 20s-20-8.972-20-20c0-11.046-8.954-20-20-20s-20 8.954-20 20c0 33.084 26.916 60 60 60s60-26.916 60-60v-73.012c0-11.046-8.954-20-20-20-61.374 0-112.165-2.271-150.962-6.749-6.554-.757-12.243-4.149-16.019-9.555-3.693-5.287-4.903-11.621-3.407-17.835 18.331-76.12 88.185-129.283 169.872-129.283m63.492 132.437c-9.583 0-18.048-6.908-19.697-16.673-4.152-24.586-23.882-46.659-24.081-46.879-7.452-8.153-6.865-20.782 1.289-28.234 8.153-7.453 20.823-6.864 28.275 1.29 1.133 1.239 27.813 30.77 33.958 67.163 1.839 10.892-5.499 21.212-16.391 23.051-1.126.19-2.247.282-3.353.282zm-108.256-16.673c4.091-24.225 23.412-45.16 23.815-45.593 7.569-8.008 7.235-20.636-.756-28.233-8.006-7.609-20.665-7.289-28.275.717-1.142 1.201-28.044 29.848-34.225 66.449-1.839 10.892 5.499 21.212 16.391 23.051 1.127.19 2.248.282 3.354.282 9.581 0 18.047-6.909 19.696-16.673z"/></svg>