<svg id="Layer_1" enable-background="new 0 0 512 512" height="512" viewBox="0 0 512 512" width="512" xmlns="http://www.w3.org/2000/svg"><path d="m173 294h-64.301c-59.936 0-108.699-49.007-108.699-109.244 0-55.47 41.414-101.407 94.827-108.267 10.008-44.115 49.418-76.489 96.707-76.489 23.705 0 46.663 8.555 64.645 24.088 13.143 11.353 23.031 25.889 28.78 42.022 43.071 3.579 77.025 39.808 77.025 83.825 0 11.046-8.954 20-20 20s-20-8.954-20-20c0-24.325-19.757-44.115-44.041-44.115-.576.004-4.971.635-5.791.736-10.68 1.333-20.498-6.035-22.213-16.662-4.587-28.444-29.696-49.894-58.405-49.894-32.035 0-58.007 24.771-59.126 56.395-.188 5.321-2.49 10.348-6.396 13.966s-9.111 5.518-14.413 5.311c-1.081-.045-2.029-.066-2.899-.066-37.882-.002-68.7 31.02-68.7 69.15 0 38.182 30.818 69.244 68.699 69.244h64.301c11.046 0 20 8.954 20 20s-8.954 20-20 20zm32 198c0-158.252 128.748-287 287-287 11.046 0 20-8.954 20-20s-8.954-20-20-20c-44.097 0-86.899 8.648-127.219 25.706-38.936 16.472-73.906 40.046-103.938 70.067-61.805 61.782-95.843 143.9-95.843 231.227 0 11.046 8.954 20 20 20s20-8.954 20-20zm79 0c0-114.691 93.309-208 208-208 11.046 0 20-8.954 20-20s-8.954-20-20-20c-66.388 0-128.719 25.8-175.512 72.646-46.745 46.797-72.488 109.073-72.488 175.354 0 11.046 8.954 20 20 20s20-8.954 20-20zm-43-277c-11.046 0-20-8.954-20-20 0-11.028-8.972-20-20-20-11.046 0-20-8.954-20-20s8.954-20 20-20c33.084 0 60 26.916 60 60 0 11.046-8.954 20-20 20zm122 277c0-71.131 57.869-129 129-129 11.046 0 20-8.954 20-20s-8.954-20-20-20c-45.237 0-87.713 17.582-119.602 49.507-31.854 31.891-49.398 74.329-49.398 119.493 0 11.046 8.954 20 20 20s20-8.954 20-20z"/></svg>