<svg id="Layer_1" enable-background="new 0 0 512 512" height="512" viewBox="0 0 512 512" width="512" xmlns="http://www.w3.org/2000/svg"><path d="m181.5 512c-48.542 0-94.143-18.871-128.402-53.136-34.241-34.247-53.098-79.803-53.098-128.278 0-28.05 13.574-64.49 41.497-111.403 19.252-32.346 44.798-68.735 75.927-108.157 27.785-35.19 79.077-41.37 114.336-13.775 8.698 6.808 10.231 19.378 3.424 28.076s-19.379 10.232-28.076 3.424c-17.965-14.059-44.113-10.891-58.291 7.064-69.155 87.578-108.817 158.569-108.817 194.771 0 77.976 63.477 141.414 141.5 141.414 73.31 0 135.268-57.355 141.055-130.576.87-11.011 10.471-19.245 21.514-18.361 11.011.87 19.232 10.502 18.361 21.514-3.587 45.391-23.966 87.552-57.381 118.716-33.679 31.409-77.556 48.707-123.549 48.707zm330.5-344.942c0-31.653-25.72-80.275-76.446-144.516-11.312-14.325-28.28-22.542-46.551-22.542-18.272 0-35.24 8.217-46.552 22.542-50.727 64.24-76.446 112.862-76.446 144.516 0 67.791 55.177 122.942 122.998 122.942 67.82 0 122.997-55.151 122.997-122.942zm-107.839-119.727c42.479 53.796 67.839 98.553 67.839 119.727 0 45.734-37.232 82.942-82.997 82.942-45.766 0-82.998-37.208-82.998-82.942 0-21.174 25.36-65.931 67.839-119.727 3.679-4.659 9.204-7.331 15.159-7.331 5.954 0 11.479 2.672 15.158 7.331z"/></svg>