<svg id="Layer_1" enable-background="new 0 0 512.009 512.009" height="512" viewBox="0 0 512.009 512.009" width="512" xmlns="http://www.w3.org/2000/svg"><path d="m495.739 499.653c-43.754 8.313-86.333 12.352-125.733 12.352-53.706-.395-95.741-8.369-134.315-16.08-18.532-3.705-36.037-7.204-54.37-9.688-10.945-1.483-18.616-11.559-17.134-22.505 1.484-10.945 11.558-18.612 22.505-17.134 19.574 2.652 37.676 6.271 56.84 10.103 36.737 7.344 74.726 14.938 124.622 15.305 38.06.267 77.388-3.53 120.119-11.649 10.854-2.06 21.319 5.064 23.382 15.915 2.06 10.851-5.065 21.319-15.916 23.381zm-386.014-188.723c1.719-.148 3.45-.305 5.195-.462 8.738-.789 17.771-1.605 26.772-1.467 19.901.312 43.206 3.293 71.246 9.115 10.815 2.246 21.403-4.701 23.648-15.516 2.246-10.815-4.701-21.403-15.516-23.648-30.54-6.342-56.3-9.595-78.754-9.945-5.736-.096-11.325.12-16.674.462-.428-5.073-.639-9.54-.639-13.464 0-57.574 22.541-111.79 63.472-152.658 40.913-40.853 95.159-63.343 152.772-63.343h.104c13.291.006 26.597 1.226 39.548 3.625 5.521 1.023 7.252 5.386 7.739 7.214s1.159 6.473-3.118 10.108c-57.388 48.767-90.301 119.86-90.301 195.053 0 65.701 24.573 128.093 69.193 175.68 3.938 4.199 9.259 6.32 14.594 6.32 4.903 0 9.817-1.792 13.676-5.41 8.058-7.556 8.465-20.212.91-28.27-37.643-40.146-58.373-92.82-58.373-148.32 0-63.435 27.775-123.419 76.203-164.572 14.803-12.58 20.882-32.082 15.865-50.896-5.018-18.813-20-32.699-39.103-36.237-15.341-2.843-31.093-4.288-46.815-4.295-.042 0-.083 0-.124 0-68.281 0-132.57 26.646-181.034 75.037-48.5 48.426-75.21 112.693-75.209 180.963 0 10.061 1.044 22.416 3.193 37.771 1.477 10.533 10.945 18.074 21.53 17.155zm155.487 101.711c1.281.248 2.557.367 3.814.367 9.392 0 17.769-6.647 19.615-16.211 2.095-10.846-4.999-21.335-15.844-23.43-8.473-1.637-16.805-3.346-24.862-4.999-34.044-6.982-66.2-13.578-105.533-14.36-38.559-.762-80.363 5.366-127.824 18.746-10.631 2.998-16.82 14.046-13.823 24.677 2.998 10.633 14.047 16.817 24.677 13.823 44.223-12.467 81.119-17.948 116.176-17.254 35.675.709 66.09 6.948 98.291 13.553 8.168 1.676 16.615 3.409 25.313 5.088zm-245.217 88.368c-8.731 0-16.753-5.761-19.239-14.578-2.997-10.632 3.192-21.68 13.823-24.677 23.999-6.765 46.123-11.525 67.639-14.555 10.926-1.536 21.053 6.078 22.593 17.017 1.54 10.938-6.079 21.053-17.017 22.593-19.715 2.775-40.113 7.174-62.361 13.445-1.815.511-3.642.755-5.438.755zm49.01-448.005c0 13.807 11.193 25 25 25s25-11.193 25-25-11.193-25-25-25-25 11.193-25 25zm393 286c0 13.807 11.193 25 25 25s25-11.193 25-25-11.193-25-25-25-25 11.193-25 25zm-58-135c0 13.807 11.193 25 25 25s25-11.193 25-25-11.193-25-25-25-25 11.193-25 25zm-404-21c0 13.807 11.193 25 25 25s25-11.193 25-25-11.193-25-25-25-25 11.193-25 25z"/></svg>