<svg id="Layer_1" enable-background="new 0 0 512.015 512.015" height="512" viewBox="0 0 512.015 512.015" width="512" xmlns="http://www.w3.org/2000/svg"><path d="m432.981 458.015c-11.046 0-20-8.954-20-20s8.954-20 20-20c21.869 0 39-17.461 39-39.751 0-14.84-8.187-28.343-21.365-35.24-9.028-4.725-13.061-15.481-9.363-24.977 2.474-6.354 3.728-12.713 3.728-18.902 0-28.719-23.327-52.083-52-52.083-.797 0-2.583.257-4.017.463-.955.138-1.894.271-2.803.385-10.681 1.315-20.496-6.037-22.21-16.663-5.35-33.171-34.635-58.185-68.119-58.185-37.362 0-67.652 28.903-68.958 65.801-.188 5.322-2.491 10.35-6.399 13.968s-9.094 5.524-14.418 5.308c-1.241-.051-2.338-.076-3.355-.076-43.959 0-79.722 35.991-79.722 80.23 0 43.959 35.439 79.723 79 79.723 11.046 0 20 8.954 20 20s-8.954 20-20 20c-31.973 0-61.935-12.479-84.366-35.138-22.334-22.56-34.634-52.599-34.634-84.585 0-61.698 46.514-112.691 106.178-119.466 10.364-49.35 54.087-85.765 106.673-85.765 26.055 0 51.29 9.403 71.055 26.477 14.861 12.838 25.938 29.376 32.171 47.722 47.909 3.141 85.923 43.152 85.923 91.885 0 5.911-.607 11.842-1.814 17.745 18.079 14.968 28.814 37.291 28.814 61.374 0 21.283-8.118 41.266-22.86 56.268-14.879 15.142-34.816 23.482-56.139 23.482zm-382.644-149.128c9.863-4.973 13.828-16.999 8.855-26.862-12.712-25.215-19.158-52.494-19.158-81.079 0-79.675 35.647-133.707 105.953-160.595.827-.315 2.543-.973 4.327 1.259 1.003 1.254 1.858 3.26.239 5.694-19.953 29.996-30.5 65.491-30.5 102.648 0 18.221 4.361 33.179 4.858 34.824 3.195 10.573 14.367 16.588 24.94 13.393s16.564-14.323 13.369-24.897c-.032-.107-3.168-10.902-3.168-23.319 0-29.249 8.231-57.083 23.805-80.494 10.849-16.31 9.923-37.541-2.304-52.831-12.166-15.215-31.735-20.57-49.855-13.638-37.501 14.343-67.658 35.754-89.632 63.639-27.89 35.393-42.032 80.584-42.032 134.317 0 34.406 8.105 68.67 23.44 99.087 3.517 6.976 10.562 11.001 17.875 11 3.027 0 6.101-.69 8.988-2.146zm259.567 197.487 55.77-54.078c10.946-10.698 14.286-26.771 8.509-40.948-5.774-14.169-19.389-23.324-34.684-23.324h-44.777l53.226-51.655c7.927-7.693 8.116-20.354.423-28.281-7.692-7.926-20.354-8.116-28.281-.424l-57.697 55.995c-11.005 10.681-14.392 26.766-8.628 40.979 5.76 14.206 19.384 23.386 34.709 23.386h44.773l-51.188 49.634c-7.93 7.689-8.125 20.352-.436 28.281 3.923 4.045 9.138 6.077 14.36 6.077 5.015-.001 10.036-1.876 13.921-5.642z"/></svg>