<svg id="Layer_1" enable-background="new 0 0 512 512" height="512" viewBox="0 0 512 512" width="512" xmlns="http://www.w3.org/2000/svg"><path d="m315.715 512h-295.715c-11.046 0-20-8.954-20-20s8.954-20 20-20h295.715c9.896 0 18.542-4.835 23.724-13.266s5.589-18.329 1.119-27.158l-190.198-375.642c-5.052-9.979-14.742-15.934-25.924-15.934-.009 0-.017 0-.025 0-11.193.01-20.884 5.981-25.924 15.976l-54.535 108.142c-5.12 10.152-5.238 22.333-.318 32.582l30.467 63.471 48.716-95.387c3.382-6.622 10.159-10.821 17.594-10.902 7.438-.034 14.302 3.97 17.827 10.517l42.052 78.097c5.237 9.726 1.598 21.855-8.127 27.092-9.725 5.236-21.854 1.599-27.091-8.127l-23.975-44.524-49.74 97.391c-3.42 6.697-10.305 10.903-17.81 10.903-.083 0-.165 0-.248-.002-7.602-.093-14.494-4.489-17.784-11.343l-47.942-99.875c-10.254-21.361-10.006-46.745.663-67.902l54.534-108.143c11.798-23.397 35.405-37.945 61.607-37.966h.058c26.18 0 49.784 14.505 61.612 37.865l190.197 375.643c10.731 21.194 9.712 45.931-2.727 66.17-12.437 20.239-34.046 32.322-57.802 32.322zm171.285-367c-13.807 0-25 11.193-25 25s11.193 25 25 25 25-11.193 25-25-11.193-25-25-25zm-91-26c-13.807 0-25 11.193-25 25s11.193 25 25 25 25-11.193 25-25-11.193-25-25-25zm91 291c-13.807 0-25 11.193-25 25s11.193 25 25 25 25-11.193 25-25-11.193-25-25-25zm-45-40c-26.245 0-50.063-14.479-62.159-37.787-.035-.066-.069-.134-.103-.2l-60.572-120c-4.977-9.861-1.019-21.89 8.842-26.867 9.861-4.975 21.89-1.019 26.867 8.842l60.516 119.89c5.205 9.947 15.391 16.122 26.609 16.122 16.542 0 30-13.458 30-30s-13.458-30-30-30c-11.046 0-20-8.954-20-20s8.954-20 20-20c38.598 0 70 31.402 70 70s-31.402 70-70 70zm-128.272-213.146c9.86-4.978 13.819-17.006 8.842-26.867l-21.201-42c-4.978-9.86-17.006-13.815-26.867-8.842-9.86 4.978-13.819 17.006-8.842 26.867l21.201 42c3.519 6.971 10.561 10.991 17.87 10.991 3.03.001 6.107-.69 8.997-2.149z"/></svg>