<svg id="Layer_1" enable-background="new 0 0 512 512" height="512" viewBox="0 0 512 512" width="512" xmlns="http://www.w3.org/2000/svg"><path d="m93 386c-51.28 0-93-41.495-93-92.5 0-28.843 13.277-55.51 35.5-72.856-1.662-7.559-2.5-15.297-2.5-23.144 0-57.677 45.653-104.89 102.723-107.396 7.084-22.836 20.53-43.434 38.889-59.214 23.177-19.919 52.791-30.89 83.388-30.89 33.388 0 64.988 12.781 88.979 35.99 19.342 18.711 32.083 42.582 36.878 68.591 71.747 6.514 128.143 67.004 128.143 140.419 0 63.379-42.652 119.311-103.723 136.015-10.654 2.92-21.653-3.36-24.568-14.015-2.914-10.654 3.36-21.653 14.015-24.567 43.733-11.962 74.276-52.029 74.276-97.433 0-55.691-45.309-101-101-101-1.293 0-2.682.031-4.243.097-5.329.214-10.512-1.688-14.421-5.306-3.908-3.618-6.212-8.646-6.4-13.97-1.684-47.563-40.31-84.821-87.936-84.821-43.431 0-79.963 31.062-86.866 73.858-1.714 10.624-11.522 17.991-22.206 16.663-2.792-.345-5.628-.521-8.428-.521-37.22 0-67.5 30.28-67.5 67.5 0 8.45 1.539 16.688 4.575 24.482 3.698 9.495-.334 20.253-9.363 24.978-17.401 9.107-28.212 26.941-28.212 46.54 0 28.948 23.776 52.5 53 52.5 11.046 0 20 8.954 20 20s-8.954 20-20 20zm267 21v-119c0-11.046-8.954-20-20-20s-20 8.954-20 20v119c0 11.046 8.954 20 20 20s20-8.954 20-20zm-90-63v-119c0-11.046-8.954-20-20-20s-20 8.954-20 20v119c0 11.046 8.954 20 20 20s20-8.954 20-20zm-90 63v-119c0-11.046-8.954-20-20-20s-20 8.954-20 20v119c0 11.046 8.954 20 20 20s20-8.954 20-20zm135 80c0-13.807 11.193-25 25-25s25 11.193 25 25-11.193 25-25 25-25-11.193-25-25zm-155 25c13.807 0 25-11.193 25-25s-11.193-25-25-25-25 11.193-25 25 11.193 25 25 25zm90-63c13.807 0 25-11.193 25-25s-11.193-25-25-25-25 11.193-25 25 11.193 25 25 25z"/></svg>