<svg id="Layer_1" enable-background="new 0 0 512 512" height="512" viewBox="0 0 512 512" width="512" xmlns="http://www.w3.org/2000/svg"><path d="m492 275.998h-20c-11.046 0-20-8.954-20-20s8.954-20 20-20h20c11.046 0 20 8.954 20 20s-8.954 20-20 20zm-432-20c0-11.046-8.954-20-20-20h-20c-11.046 0-20 8.954-20 20s8.954 20 20 20h20c11.046 0 20-8.955 20-20zm325.833-173.78 10.442-17.058c5.767-9.421 2.806-21.732-6.615-27.5-9.42-5.766-21.732-2.806-27.5 6.615l-10.442 17.058c-5.767 9.421-2.806 21.732 6.615 27.5 3.259 1.995 6.863 2.945 10.424 2.945 6.731.001 13.304-3.399 17.076-9.56zm-227.845 4.044c9.565-5.523 12.843-17.755 7.318-27.32l-10.001-17.319c-5.522-9.565-17.755-12.843-27.32-7.318-9.565 5.523-12.843 17.755-7.318 27.32l10.001 17.319c3.704 6.416 10.426 10.002 17.338 10.002 3.393 0 6.833-.864 9.982-2.684zm320.951 295.341c5.42-9.625 2.012-21.82-7.613-27.24l-17.427-9.813c-9.624-5.42-21.82-2.012-27.24 7.613s-2.012 21.82 7.613 27.24l17.427 9.813c3.103 1.747 6.472 2.577 9.795 2.577 6.987 0 13.773-3.668 17.445-10.19zm-393.85-221.778c5.42-9.625 2.012-21.82-7.613-27.24l-17.427-9.813c-9.624-5.42-21.82-2.012-27.24 7.613s-2.012 21.82 7.613 27.24l17.427 9.813c3.103 1.747 6.472 2.577 9.795 2.577 6.987 0 13.772-3.668 17.445-10.19zm369.182 8.45 17.469-9.739c9.647-5.379 13.108-17.561 7.729-27.208-5.379-9.646-17.558-13.109-27.208-7.729l-17.469 9.739c-9.647 5.379-13.108 17.561-7.729 27.208 3.66 6.564 10.469 10.265 17.487 10.265 3.295-.001 6.638-.817 9.721-2.536zm-181.271-128.269v-19.999c0-11.046-8.954-20-20-20s-20 8.954-20 20v19.999c0 11.046 8.954 20 20 20s20-8.954 20-20zm-213.771 347.996 17.487-9.705c9.658-5.36 13.143-17.534 7.782-27.192-5.36-9.657-17.532-13.145-27.192-7.782l-17.487 9.705c-9.658 5.36-13.143 17.534-7.782 27.192 3.653 6.584 10.474 10.299 17.506 10.299 3.281 0 6.611-.811 9.686-2.517zm330.431 86.337c9.421-5.768 12.382-18.079 6.615-27.5l-10.442-17.058c-5.769-9.421-18.081-12.384-27.5-6.615-9.421 5.768-12.382 18.079-6.615 27.5l10.442 17.058c3.772 6.162 10.345 9.561 17.076 9.561 3.561 0 7.165-.951 10.424-2.946zm-234.353-3.962 10.001-17.32c5.523-9.565 2.246-21.798-7.319-27.321-9.564-5.521-21.799-2.247-27.321 7.319l-10.001 17.32c-5.523 9.565-2.246 21.798 7.319 27.321 3.15 1.818 6.588 2.683 9.982 2.683 6.911 0 13.635-3.587 17.339-10.002zm117.693 21.616v-19.999c0-11.046-8.954-20-20-20s-20 8.954-20 20v19.999c0 11.046 8.954 20 20 20s20-8.954 20-20zm147.997-235.995c0-90.981-74.018-164.998-164.997-164.998s-164.997 74.017-164.997 164.998v.005c0 90.979 74.018 164.997 164.997 164.997s164.997-74.018 164.997-165.002zm-40 .004c0 68.924-56.073 124.998-124.997 124.998s-124.997-56.073-124.997-124.997v-.005c0-68.924 56.073-124.998 124.997-124.998s124.997 56.074 124.997 125.002zm-172.997-76c13.807 0 25 11.193 25 25s-11.193 25-25 25-25-11.193-25-25 11.193-25 25-25zm72 127c0 13.807 11.193 25 25 25s25-11.193 25-25-11.193-25-25-25-25 11.193-25 25zm-52.395 8.664 87-93c7.546-8.066 7.124-20.723-.942-28.269-8.065-7.545-20.722-7.125-28.269.942l-87 93c-7.546 8.066-7.124 20.723.942 28.269 3.857 3.608 8.763 5.395 13.659 5.395 5.343-.001 10.673-2.128 14.61-6.337z"/></svg>