<svg id="Layer_1" enable-background="new 0 0 512.068 512.068" height="512" viewBox="0 0 512.068 512.068" width="512" xmlns="http://www.w3.org/2000/svg"><path d="m487.063 268.031c13.807 0 25 11.193 25 25s-11.193 25-25 25-25-11.193-25-25 11.193-25 25-25zm-93 115c0 13.807 11.193 25 25 25s25-11.193 25-25-11.193-25-25-25-25 11.193-25 25zm-155-265c0 13.807 11.193 25 25 25s25-11.193 25-25-11.193-25-25-25-25 11.193-25 25zm272.052 380.081c3.358-10.523-2.449-21.776-12.972-25.134-3.96-1.264-98.594-30.947-240.081-30.947-141.367 0-239.736 29.615-243.854 30.876-10.557 3.231-16.492 14.404-13.267 24.964 3.224 10.559 14.406 16.504 24.963 13.288.956-.291 97.16-29.128 232.158-29.128 134.825 0 227.019 28.768 227.919 29.053 2.022.646 4.07.953 6.086.953 8.47-.001 16.336-5.425 19.048-13.925zm-211.878-116.143c9.752-4.901 19.161-10.598 27.967-16.929 14.388-10.348 21.318-27.619 18.086-45.075-3.255-17.577-16.014-31.321-33.296-35.868-46.019-12.108-84.687-43.322-106.09-85.638-21.394-42.298-23.579-91.825-5.996-135.883 6.6-16.541 3.147-34.93-9.01-47.989-12.115-13.014-30.147-17.753-47.055-12.373-10.346 3.292-20.546 7.452-30.317 12.364-49.266 24.769-85.885 67.197-103.111 119.468-17.187 52.15-12.999 107.863 11.792 156.876 24.813 49.059 67.298 85.545 119.628 102.738 21.225 6.974 43.035 10.435 64.752 10.435 31.813-.001 63.419-7.43 92.65-22.126zm-137.616-340.127c1.115 1.198 2.218 3.196 1.136 5.909-21.836 54.714-19.119 116.225 7.454 168.761 26.562 52.518 74.53 91.251 131.605 106.269 3.032.798 3.896 3.142 4.143 4.469.283 1.529.146 3.693-2.108 5.315-7.103 5.107-14.699 9.705-22.579 13.666-81.886 41.168-182.087 8.257-223.371-73.364-19.959-39.462-23.332-84.316-9.496-126.301 13.877-42.106 43.384-76.288 83.088-96.249 7.896-3.97 16.133-7.33 24.481-9.986.64-.203 1.231-.291 1.778-.291 1.762 0 3.041.914 3.869 1.802zm266.921 194.153c-16.645 0-33.283-6.335-45.95-19.003l-31.704-31.852c-7.792-7.829-7.763-20.492.065-28.284 7.829-7.792 20.492-7.763 28.284.065l31.672 31.819c9.712 9.712 25.57 9.715 35.317-.027l31.665-31.796c7.794-7.827 20.456-7.852 28.284-.058 7.826 7.794 7.853 20.457.058 28.284l-31.697 31.828c-12.689 12.685-29.344 19.024-45.994 19.024zm20.521-93.964v-122c0-11.046-8.954-20-20-20s-20 8.954-20 20v122c0 11.046 8.954 20 20 20s20-8.954 20-20z"/></svg>