<svg id="Layer_1" enable-background="new 0 0 511.901 511.901" height="512" viewBox="0 0 511.901 511.901" width="512" xmlns="http://www.w3.org/2000/svg"><path d="m398.972 136.917c.695.696-.765-.572 0 0zm73.461 314.339c-11.432 18.698-30.403 31.625-52.05 35.466-4.491.797-9.013 1.189-13.51 1.189-17.356.001-34.375-5.84-48.173-16.79-41.652-33.058-93.233-80.303-153.311-140.426-61.102-61.147-108.419-112.769-140.64-153.427-13.777-17.386-19.456-39.883-15.58-61.723 3.841-21.646 16.756-40.62 35.432-52.056 103.094-63.121 235.4-49.314 328.216 32.257l18.027-17.988c7.819-7.803 20.482-7.788 28.284.03 7.802 7.819 7.789 20.482-.03 28.284l-17.918 17.88c80.635 92.821 94.067 224.56 31.253 327.304zm-73.461-314.339c-48.127-48.163-111.253-72.907-173.821-72.907-41.441 0-82.76 10.999-119.662 33.594-9.051 5.542-15.065 14.396-16.935 24.932-1.876 10.576.874 21.471 7.545 29.89 31.272 39.463 77.562 89.929 137.584 149.997 58.999 59.042 109.426 105.26 149.882 137.367 8.403 6.669 19.274 9.419 29.829 7.548 10.525-1.867 19.372-7.886 24.911-16.946 56.153-91.847 38.778-213.404-39.333-293.475zm-248.31 220.028-76.617 78.467c-7.804 7.729-20.44 7.708-28.215-.068-7.798-7.798-7.798-20.485 0-28.283 7.811-7.811 7.811-20.475 0-28.285s-20.474-7.811-28.284 0c-23.394 23.395-23.394 61.459 0 84.854 11.697 11.696 27.062 17.545 42.426 17.545s30.729-5.849 42.426-17.545c.056-.057.112-.113.168-.17l76.716-78.568c7.716-7.903 7.565-20.565-.337-28.282-7.904-7.721-20.566-7.568-28.283.335zm200.609-25.438c32.332-45.468 45.908-115.971 46.47-118.95 2.047-10.85-5.086-21.3-15.935-23.354-10.852-2.049-21.31 5.078-23.37 15.926-.123.645-12.565 64.947-39.764 103.198-6.401 9.002-4.292 21.488 4.709 27.89 3.516 2.5 7.563 3.702 11.573 3.702 6.255 0 12.417-2.926 16.317-8.412zm-136.125-113.588c-6.255 0-12.416-2.926-16.316-8.412-6.401-9.002-4.292-21.488 4.709-27.89 45.576-32.407 115.04-44.884 117.974-45.398 10.884-1.92 21.248 5.36 23.157 16.239 1.909 10.875-5.355 21.239-16.227 23.155-.632.112-63.591 11.487-101.725 38.604-3.515 2.5-7.563 3.701-11.572 3.702z"/></svg>