<svg id="Layer_1" enable-background="new 0 0 512.06 512.06" height="512" viewBox="0 0 512.06 512.06" width="512" xmlns="http://www.w3.org/2000/svg"><path d="m70.975 308.757c-2.149 0-4.334-.35-6.481-1.085-24.096-8.251-43.534-25.383-54.733-48.238-11.203-22.862-12.82-48.714-4.554-72.792 17.057-49.684 71.397-76.245 121.133-59.219 7.17 2.456 28.988 9.928 90.006 72.483 7.713 7.906 7.555 20.569-.352 28.282-7.908 7.712-20.57 7.555-28.282-.353-50.442-51.712-69.647-60.966-74.332-62.57-28.884-9.892-60.441 5.524-70.341 34.364-4.792 13.959-3.854 28.948 2.641 42.204 6.499 13.263 17.782 23.205 31.772 27.996 10.45 3.578 16.021 14.95 12.442 25.4-2.843 8.304-10.607 13.528-18.919 13.528zm241.381-95.436c40.673-79.985 40.673-103.451 40.673-111.162 0-52.881-43.065-95.903-96-95.903s-96 43.022-96 95.903c0 11.046 8.954 20 20 20s20-8.954 20-20c0-30.825 25.122-55.903 56-55.903s56 25.078 56 55.903c0 5.064-2.62 26.742-36.329 93.031-5.006 9.846-1.083 21.886 8.762 26.893 2.905 1.478 6 2.178 9.049 2.177 7.289 0 14.315-3.998 17.845-10.939zm-78.335 252.947c6.47-8.952 4.458-21.455-4.495-27.925-8.951-6.47-21.454-4.458-27.925 4.495-17.923 24.799-52.709 30.411-77.545 12.509-12.026-8.67-19.951-21.496-22.313-36.115-2.361-14.608 1.116-29.262 9.788-41.262 2.951-4.083 17.702-20.041 83.597-53.928 9.823-5.052 13.691-17.109 8.64-26.933-5.052-9.822-17.109-13.691-26.933-8.64-79.533 40.901-93.225 59.845-97.724 66.07-14.936 20.667-20.922 45.907-16.856 71.072 4.068 25.176 17.709 47.26 38.41 62.182 16.87 12.161 36.402 18.01 55.771 18.01 29.665.001 58.935-13.73 77.585-39.535zm181.037 20.91c42.292-31.13 51.564-91.096 20.672-133.673-6.487-8.94-18.992-10.929-27.934-4.442-8.94 6.486-10.929 18.992-4.442 27.933 18.029 24.848 12.642 59.824-12.008 77.97-11.865 8.734-26.391 12.298-40.903 10.045-14.574-2.267-27.399-10.13-36.115-22.142-2.987-4.117-13.657-23.313-25.552-97.491-1.749-10.907-12.007-18.333-22.914-16.581-10.906 1.749-18.33 12.008-16.581 22.915 14.331 89.37 28.135 108.396 32.671 114.647 15.021 20.702 37.161 34.26 62.344 38.176 4.928.767 9.854 1.146 14.747 1.146 20.052-.002 39.527-6.365 56.015-18.503zm34.41-182.699c24.079-8.993 43.211-26.814 53.873-50.183 10.665-23.375 11.576-49.498 2.567-73.558-18.589-49.647-74.148-74.936-123.844-56.374-10.348 3.865-15.603 15.387-11.738 25.734 3.864 10.347 15.388 15.603 25.733 11.737 29.053-10.852 61.528 3.921 72.389 32.928 5.257 14.042 4.725 29.287-1.499 42.929-6.227 13.648-17.405 24.06-31.476 29.314-4.733 1.768-25.877 6.899-99.231-1.27-10.978-1.226-20.869 6.684-22.091 17.663-1.223 10.979 6.686 20.868 17.663 22.091 31.505 3.509 54.571 4.732 71.543 4.732 30.726.002 41.473-4.01 46.111-5.743zm-167.439-34.223c0-13.807-11.193-25-25-25s-25 11.193-25 25 11.193 25 25 25 25-11.193 25-25z"/></svg>