<svg id="Layer_1" enable-background="new 0 0 512 512" height="512" viewBox="0 0 512 512" width="512" xmlns="http://www.w3.org/2000/svg"><path d="m256 512c-57.244 0-111.017-22.303-151.413-62.801-40.359-40.463-62.587-94.286-62.587-151.554 0-33.012 16.117-76.2 49.271-132.034 23.035-38.792 53.619-82.459 90.902-129.787 17.935-22.767 44.844-35.824 73.827-35.824s55.892 13.057 73.827 35.822v.001c37.283 47.328 67.867 90.995 90.902 129.787 33.154 55.834 49.271 99.023 49.271 132.035 0 57.269-22.228 111.092-62.587 151.555-40.396 40.497-94.169 62.8-151.413 62.8zm0-472c-16.648 0-32.104 7.5-42.406 20.576-83.63 106.162-131.594 192.57-131.594 237.069 0 96.139 78.056 174.355 174 174.355s174-78.216 174-174.355c0-44.498-47.964-130.906-131.595-237.069v.001c-10.301-13.077-25.757-20.577-42.405-20.577zm-109 281c-.387 0 .388.008 0 0zm211.001-40c-.036 0-.072 0-.106 0-4.498 0-8.729-1.841-11.896-5-11.159-11.131-26.341-17.058-41-16.967-14.423.09-29.016 6.009-40 16.967-3.233 3.225-7.754 4.949-12 4.996-4.369.049-8.678-1.682-12-4.996-11.391-11.364-27.038-17.287-42-16.954-14.114.314-28.249 6.229-39 16.954-3.265 3.257-7.978 5.083-12.606 4.997-11.029-.243-20.172 8.559-20.39 19.602-.217 11.044 8.954 20.183 19.997 20.401 15.154-.001 30.237-6.264 41-17 3.211-3.203 7.783-4.926 12-4.995 4.398-.072 9.656 1.659 13 4.995 22.138 22.085 57.852 22.093 80 0 3.19-3.183 7.811-4.905 12-4.993 4.425-.093 8.635 1.637 12 4.993 10.731 10.705 25.835 17 41 17 11.046-.031 20.031-9.01 20-20.056-.031-11.027-8.979-19.944-19.999-19.944z"/></svg>