<svg id="Layer_1" enable-background="new 0 0 512 512" height="512" viewBox="0 0 512 512" width="512" xmlns="http://www.w3.org/2000/svg"><path d="m361.947 512h-209.893c-22.881 0-43.323-11.84-54.681-31.671-11.33-19.78-11.208-43.328.327-62.991l105.133-179.231c11.426-19.481 31.743-31.107 54.351-31.107h.052c22.629.018 42.949 11.678 54.354 31.19l104.76 179.231c11.493 19.663 11.588 43.195.253 62.95-11.363 19.806-31.795 31.629-54.656 31.629zm-104.759-265c-3.982 0-13.85 1.109-19.854 11.345l-105.133 179.231c-6.037 10.292-2.094 19.424-.119 22.873 1.989 3.473 7.918 11.551 19.972 11.551h209.893c12.043 0 17.972-8.067 19.962-11.535 1.976-3.444 5.923-12.566-.092-22.857l-104.761-179.232c-5.996-10.259-15.88-11.373-19.852-11.376-.005 0-.011 0-.016 0zm-167.162 122.163c3.404-10.508-2.354-21.785-12.863-25.189-21.881-7.089-37.163-27.844-37.163-50.474 0-19.599 10.811-37.433 28.212-46.54 9.028-4.725 13.061-15.482 9.363-24.978-3.036-7.794-4.575-16.032-4.575-24.482 0-37.22 30.28-67.5 67.5-67.5 2.8 0 5.636.176 8.43.521 10.677 1.328 20.492-6.039 22.205-16.663 6.902-42.796 43.434-73.858 86.865-73.858 47.626 0 86.252 37.258 87.936 84.821.188 5.323 2.492 10.352 6.4 13.97 3.909 3.618 9.092 5.52 14.421 5.306 1.562-.065 2.95-.097 4.243-.097 55.691 0 101 45.309 101 101 0 33.479-16.2 64.611-43.336 83.279-9.1 6.261-11.402 18.713-5.141 27.813s18.713 11.403 27.813 5.142c37.986-26.133 60.664-69.586 60.664-116.234 0-73.415-56.396-133.905-128.143-140.419-4.795-26.009-17.536-49.88-36.878-68.591-23.991-23.209-55.591-35.99-88.979-35.99-30.597 0-60.211 10.971-83.388 30.891-18.359 15.78-31.804 36.378-38.889 59.214-57.07 2.505-102.723 49.718-102.723 107.395 0 7.847.838 15.585 2.5 23.144-22.223 17.346-35.5 44.013-35.5 72.856 0 39.757 26.662 76.16 64.836 88.526 2.048.664 4.125.979 6.168.979 8.437 0 16.282-5.382 19.022-13.842zm166.974 28.837c13.807 0 25 11.193 25 25s-11.193 25-25 25-25-11.193-25-25 11.193-25 25-25zm20-39.111v-40.889c0-11.046-8.954-20-20-20s-20 8.954-20 20v40.889c0 11.046 8.954 20 20 20s20-8.954 20-20z"/></svg>