<svg id="Layer_1" enable-background="new 0 0 512.026 512.026" height="512" viewBox="0 0 512.026 512.026" width="512" xmlns="http://www.w3.org/2000/svg"><path d="m185 512.025c-17.634 0-34.858-4.873-49.809-14.093-9.402-5.797-12.324-18.119-6.526-27.521 5.797-9.401 18.119-12.323 27.521-6.526 8.636 5.325 18.6 8.14 28.814 8.14 28.654 0 52.195-21.491 54.759-49.99.615-6.837 4.693-12.881 10.803-16.01 6.11-3.128 13.396-2.906 19.305.592 11.502 6.809 24.688 10.408 38.133 10.408 41.355 0 75-33.645 75-75 0-4.254-.363-8.539-1.08-12.737-.898-5.26.343-10.66 3.448-15 3.104-4.341 7.814-7.261 13.082-8.11 31.608-5.099 54.55-32.078 54.55-64.153 0-18.371-7.836-35.972-21.5-48.29-4.269-3.849-6.676-9.348-6.607-15.095s2.607-11.188 6.968-14.932c2.463-2.115 4.876-4.353 7.173-6.65 33.857-33.857 43.212-81.71 20.428-104.495-10.383-10.383-26.356-14.521-44.976-11.66-20.906 3.217-42.043 14.612-59.52 32.089-2.328 2.328-4.604 4.787-6.763 7.309-3.8 4.438-9.351 6.99-15.19 6.99-.026 0-.053 0-.079 0-5.869-.023-11.432-2.623-15.214-7.111-12.402-14.715-30.524-23.155-49.72-23.155-32.074 0-59.054 22.941-64.153 54.55-.85 5.269-3.769 9.979-8.109 13.083s-9.74 4.348-15.001 3.447c-4.198-.717-8.483-1.08-12.737-1.08-41.355 0-75 33.645-75 75 0 14.112 3.941 27.859 11.398 39.757 3.674 5.863 4.058 13.209 1.013 19.422-3.045 6.214-9.085 10.412-15.97 11.1-28.186 2.818-49.441 26.342-49.441 54.721 0 10.85 3.149 21.336 9.106 30.326 6.102 9.207 3.584 21.618-5.624 27.72-9.208 6.1-21.618 3.584-27.719-5.624-10.312-15.561-15.763-33.688-15.763-52.422 0-23.707 8.784-46.412 24.732-63.932 9.634-10.583 21.39-18.749 34.373-24.047-4.026-11.848-6.105-24.342-6.105-37.021 0-63.745 52.11-115.506 116.002-114.996 6.078-17.171 16.594-32.624 30.595-44.66 19.012-16.343 43.305-25.344 68.403-25.344 23.611 0 46.211 7.896 64.488 22.144 22.346-20.332 49.033-33.664 75.916-37.8 31.542-4.851 59.717 3.284 79.342 22.911 19.626 19.626 27.763 47.804 22.911 79.342-4.154 27.002-17.589 53.81-38.073 76.216 13.14 17.891 20.417 39.68 20.417 62.188 0 25.098-9 49.391-25.344 68.402-12.036 14.001-27.489 24.517-44.661 30.595.003.335.004.669.004 1.003 0 63.411-51.589 115-115 115-11.777 0-23.431-1.806-34.553-5.305-5.22 13.315-13.438 25.383-24.189 35.267-17.566 16.146-40.386 25.037-64.258 25.037zm-150.858-5.857 323-323c7.811-7.811 7.811-20.475 0-28.285s-20.474-7.811-28.284 0l-323 323c-7.811 7.811-7.811 20.475 0 28.285 3.905 3.905 9.023 5.857 14.142 5.857s10.237-1.952 14.142-5.857z"/></svg>