<svg id="Layer_1" enable-background="new 0 0 512.5 512.5" height="512" viewBox="0 0 512.5 512.5" width="512" xmlns="http://www.w3.org/2000/svg"><path d="m219 69.25c-11.046 0-20-8.954-20-20v-29c0-11.046 8.954-20 20-20s20 8.954 20 20v29c0 11.046-8.954 20-20 20zm101.033 12.482 16-26c5.789-9.407 2.855-21.727-6.551-27.516-9.409-5.79-21.727-2.856-27.516 6.551l-16 26c-5.789 9.407-2.855 21.727 6.551 27.516 3.27 2.012 6.888 2.97 10.464 2.97 6.715 0 13.275-3.383 17.052-9.521zm54.748 65.364 25-16c9.304-5.954 12.019-18.323 6.064-27.627s-18.323-12.019-27.627-6.064l-25 16c-9.304 5.954-12.019 18.323-6.064 27.627 3.818 5.965 10.271 9.222 16.864 9.222 3.691-.001 7.424-1.022 10.763-3.158zm-305.781 72.154c0-11.046-8.954-20-20-20h-29c-11.046 0-20 8.954-20 20s8.954 20 20 20h29c11.046 0 20-8.954 20-20zm20.609-75.518c5.236-9.726 1.598-21.855-8.127-27.092l-26-14c-9.723-5.234-21.854-1.598-27.092 8.127-5.236 9.726-1.598 21.855 8.127 27.092l26 14c3.017 1.624 6.263 2.395 9.465 2.395 7.121 0 14.015-3.814 17.627-10.522zm-35.183 190.351 25.479-14.17c9.653-5.368 13.127-17.546 7.758-27.199-5.368-9.652-17.545-13.129-27.199-7.758l-25.479 14.17c-9.653 5.368-13.127 17.546-7.758 27.199 3.656 6.575 10.471 10.283 17.497 10.283 3.288 0 6.624-.813 9.702-2.525zm74.965 64.309 15.583-24.641c5.904-9.335 3.122-21.689-6.214-27.593-9.332-5.904-21.688-3.123-27.593 6.214l-15.583 24.641c-5.904 9.335-3.122 21.689 6.214 27.593 3.317 2.099 7.015 3.1 10.671 3.1 6.629-.001 13.116-3.297 16.922-9.314zm11.424-307.156c9.346-5.887 12.15-18.235 6.264-27.582l-15.156-24.063c-5.886-9.347-18.234-12.151-27.582-6.264-9.346 5.887-12.15 18.235-6.264 27.582l15.156 24.063c3.802 6.036 10.299 9.344 16.941 9.344 3.643 0 7.331-.995 10.641-3.08zm30.733 222.131c6.692-8.788 4.994-21.337-3.794-28.028-20.816-15.852-32.754-39.941-32.754-66.089 0-45.767 37.233-83 83-83 27.085 0 52.531 13.258 68.069 35.466 6.331 9.051 18.802 11.253 27.853 4.922 9.05-6.333 11.254-18.803 4.921-27.854-23.016-32.895-60.714-52.534-100.843-52.534-67.822 0-123 55.178-123 123 0 38.742 17.685 74.43 48.52 97.911 3.62 2.758 7.878 4.09 12.103 4.09 6.028 0 11.99-2.717 15.925-7.884zm33.952 178.883c0-158.252 128.748-287 287-287 11.046 0 20-8.954 20-20s-8.954-20-20-20c-44.097 0-86.899 8.648-127.219 25.706-38.936 16.472-73.906 40.046-103.938 70.067-61.805 61.782-95.843 143.9-95.843 231.227 0 11.046 8.954 20 20 20s20-8.954 20-20zm79 0c0-114.691 93.309-208 208-208 11.046 0 20-8.954 20-20s-8.954-20-20-20c-66.388 0-128.719 25.8-175.512 72.646-46.745 46.797-72.488 109.073-72.488 175.354 0 11.046 8.954 20 20 20s20-8.954 20-20zm79 0c0-71.131 57.869-129 129-129 11.046 0 20-8.954 20-20s-8.954-20-20-20c-45.237 0-87.713 17.582-119.602 49.507-31.854 31.891-49.398 74.329-49.398 119.493 0 11.046 8.954 20 20 20s20-8.954 20-20z"/></svg>