<svg id="Layer_1" enable-background="new 0 0 512.005 512.005" height="512" viewBox="0 0 512.005 512.005" width="512" xmlns="http://www.w3.org/2000/svg"><path d="m390.751 324.953h-229.526c-66.016 0-119.723-53.707-119.723-119.723 0-61.698 46.515-112.691 106.179-119.466 10.363-49.349 54.086-85.764 106.673-85.764 26.056 0 51.29 9.403 71.055 26.478 14.862 12.838 25.938 29.376 32.171 47.721 47.909 3.141 85.923 43.152 85.923 91.886 0 5.911-.607 11.842-1.813 17.744 18.079 14.969 28.813 37.291 28.813 61.374-.001 43.974-35.777 79.75-79.752 79.75zm-229.526-199.953c-43.959 0-79.723 35.991-79.723 80.23 0 43.959 35.764 79.723 79.723 79.723h229.526c21.919 0 39.751-17.832 39.751-39.751 0-14.84-8.187-28.343-21.365-35.24-9.028-4.725-13.061-15.482-9.362-24.978 2.474-6.351 3.728-12.71 3.728-18.9 0-28.719-23.327-52.084-52-52.084-.797 0-5.911.734-6.82.848-10.683 1.317-20.496-6.037-22.21-16.663-5.35-33.171-34.635-58.185-68.119-58.185-37.362 0-67.651 28.903-68.957 65.801-.188 5.322-2.491 10.35-6.398 13.968-3.908 3.618-9.104 5.525-14.418 5.308-1.242-.052-2.339-.077-3.356-.077zm-27.679 385.368c10.145-4.369 14.826-16.136 10.456-26.28-6.312-14.653-3.598-26.834 4.022-45.544 8.617-21.158 16.721-46.26 3.714-76.456-4.369-10.145-16.134-14.824-26.28-10.456-10.145 4.369-14.826 16.136-10.456 26.28 6.312 14.653 3.598 26.834-4.022 45.544-8.617 21.158-16.721 46.26-3.714 76.456 3.259 7.566 10.631 12.093 18.378 12.093 2.64 0 5.324-.526 7.902-1.637zm85 0c10.145-4.369 14.826-16.136 10.456-26.28-6.312-14.653-3.598-26.834 4.022-45.544 8.617-21.158 16.721-46.26 3.714-76.456-4.369-10.145-16.134-14.824-26.28-10.456-10.145 4.369-14.826 16.136-10.456 26.28 6.312 14.653 3.598 26.834-4.022 45.544-8.617 21.158-16.721 46.26-3.714 76.456 3.259 7.566 10.631 12.093 18.378 12.093 2.64 0 5.324-.526 7.902-1.637zm85 0c10.145-4.369 14.826-16.136 10.456-26.28-6.312-14.653-3.598-26.834 4.022-45.544 8.617-21.158 16.721-46.26 3.714-76.456-4.369-10.145-16.134-14.824-26.28-10.456-10.145 4.369-14.826 16.136-10.456 26.28 6.312 14.653 3.598 26.834-4.022 45.544-8.617 21.158-16.721 46.26-3.714 76.456 3.259 7.566 10.631 12.093 18.378 12.093 2.64 0 5.324-.526 7.902-1.637zm85 0c10.145-4.369 14.826-16.136 10.456-26.28-6.312-14.653-3.598-26.834 4.022-45.544 8.617-21.158 16.721-46.26 3.714-76.456-4.369-10.145-16.135-14.824-26.28-10.456-10.145 4.369-14.826 16.136-10.456 26.28 6.312 14.653 3.598 26.834-4.022 45.544-8.617 21.158-16.721 46.26-3.714 76.456 3.259 7.566 10.631 12.093 18.378 12.093 2.64 0 5.324-.526 7.902-1.637zm-47.044-293.415c0-35.317-28.71-64.051-64-64.051-11.046 0-20 8.954-20 20s8.954 20 20 20c13.233 0 24 10.789 24 24.051 0 11.046 8.954 20 20 20s20-8.954 20-20z"/></svg>