<svg id="Layer_1" enable-background="new 0 0 512.005 512.005" height="512" viewBox="0 0 512.005 512.005" width="512" xmlns="http://www.w3.org/2000/svg"><path d="m350 458.003c-11.046 0-20-8.954-20-20s8.954-20 20-20c21.869 0 39-17.461 39-39.751 0-14.84-8.187-28.343-21.365-35.24-9.027-4.725-13.06-15.481-9.362-24.977 2.474-6.353 3.728-12.712 3.728-18.902 0-28.719-23.327-52.083-52-52.083-.797 0-5.911.734-6.82.848-10.684 1.324-20.496-6.038-22.21-16.663-5.35-33.171-34.634-58.185-68.118-58.185-37.362 0-67.651 28.903-68.958 65.801-.188 5.322-2.491 10.35-6.399 13.968-3.907 3.618-9.094 5.521-14.418 5.308-1.24-.051-2.337-.076-3.354-.076-43.96-.001-79.724 35.99-79.724 80.229 0 43.959 35.439 79.723 79 79.723 11.046 0 20 8.954 20 20s-8.954 20-20 20c-31.973 0-61.935-12.479-84.366-35.138-22.334-22.56-34.634-52.599-34.634-84.585 0-61.698 46.514-112.691 106.178-119.466 10.36-49.354 54.084-85.765 106.674-85.765 26.056 0 51.29 9.403 71.055 26.477 14.862 12.838 25.938 29.376 32.171 47.722 47.908 3.14 85.922 43.152 85.922 91.885 0 5.912-.607 11.842-1.813 17.745 18.078 14.968 28.813 37.291 28.813 61.374 0 21.283-8.118 41.266-22.859 56.268-14.88 15.143-34.819 23.483-56.141 23.483zm4.002-413.898v-24.102c0-11.046-8.954-20-20-20s-20 8.954-20 20v24.103c0 11.046 8.954 20 20 20s20-8.955 20-20.001zm120.935 118.161 23.012-7.169c10.546-3.285 16.432-14.498 13.146-25.043-3.285-10.546-14.496-16.435-25.043-13.146l-23.012 7.169c-10.546 3.285-16.432 14.498-13.146 25.043 2.669 8.566 10.565 14.057 19.089 14.057 1.969 0 3.974-.293 5.954-.911zm-41.24-77.871 15-19c6.845-8.669 5.365-21.246-3.305-28.09-8.67-6.845-21.247-5.365-28.09 3.305l-15 19c-6.845 8.669-5.365 21.246 3.305 28.09 3.67 2.897 8.04 4.304 12.379 4.304 5.911 0 11.765-2.609 15.711-7.609zm-168.697.608c8.837-6.627 10.627-19.163 4-28l-15-20c-6.628-8.836-19.162-10.628-28-4-8.837 6.627-10.627 19.163-4 28l15 20c3.93 5.239 9.935 8.001 16.016 8.001 4.174 0 8.386-1.303 11.984-4.001zm246.123 154.857c3.235-10.561-2.704-21.745-13.266-24.98l-23.046-7.06c-10.557-3.235-21.745 2.704-24.98 13.266-3.235 10.561 2.704 21.745 13.266 24.98l23.046 7.06c1.951.598 3.924.882 5.864.882 8.558 0 16.478-5.538 19.116-14.148zm-301.129 272.143c-5.223 0-10.438-2.032-14.36-6.077-7.689-7.93-7.494-20.592.436-28.281l51.188-49.634h-44.773c-15.325 0-28.949-9.18-34.71-23.386-5.763-14.214-2.376-30.299 8.629-40.979l57.698-55.995c7.927-7.692 20.589-7.503 28.281.424s7.503 20.589-.424 28.281l-53.227 51.655h44.777c15.295 0 28.909 9.155 34.684 23.324 5.777 14.177 2.438 30.25-8.508 40.948l-55.77 54.078c-3.885 3.767-8.906 5.642-13.921 5.642zm216.006-325c0-24.496-9.622-47.727-27.095-65.412-17.575-17.79-40.753-27.588-65.263-27.588-10.771 0-19.353 1.228-27.822 3.979-10.505 3.413-16.255 14.695-12.842 25.201 3.412 10.505 14.693 16.255 25.201 12.842 4.361-1.417 8.985-2.021 15.463-2.021 28.381 0 52.357 24.271 52.357 53 0 11.046 8.954 20 20 20s20.001-8.955 20.001-20.001z"/></svg>